<?xml version="1.0" encoding="utf-8"?>
<!-- Generator: Adobe Illustrator 22.0.0, SVG Export Plug-In . SVG Version: 6.00 Build 0)  -->
<svg version="1.1" id="Layer_1" xmlns="http://www.w3.org/2000/svg" xmlns:xlink="http://www.w3.org/1999/xlink" x="0px" y="0px"
	 viewBox="0 0 41.7 22" style="enable-background:new 0 0 41.7 22;" xml:space="preserve">
<path d="M40.1,11c0,0.4-0.2,0.8-0.5,1l-10.3,7.7c-0.4,0.3-0.9,0.3-1.3,0.1c-0.4-0.2-0.7-0.7-0.7-1.1v-6.4H2.8
	c-0.7,0-1.3-0.6-1.3-1.3s0.6-1.3,1.3-1.3h24.4V3.3c0-0.5,0.3-0.9,0.7-1.1c0.4-0.2,1-0.2,1.3,0.1L39.6,10
	C39.9,10.2,40.1,10.6,40.1,11L40.1,11z"/>
</svg>
