<svg version="1.1" id="Layer_1" xmlns="http://www.w3.org/2000/svg" xmlns:xlink="http://www.w3.org/1999/xlink" x="0px" y="0px"
	 viewBox="0 0 100 100" style="enable-background:new 0 0 100 100;" xml:space="preserve">
<g transform="translate(128 128) scale(0.72 0.72)">
	<g transform="translate(-175.05 -175.05) scale(3.89 3.89)">
		<path d="M17.2,34.5c-6.9,0-12.6-5.6-12.6-12.6c0,0,0-0.1,0-0.1c0-1.7,0.7-3.4,1.4-5.1c1.1-2.8,2.2-5.6,1-9
			C6.8,7.4,6.9,7,7.1,6.8c0.2-0.2,0.5-0.3,0.8-0.2c2.4,0.8,4.1,2.1,5.5,4.3c1.9-3.2,2.4-5.9,1.8-10.2c0-0.3,0.1-0.6,0.4-0.8
			c0.3-0.2,0.6-0.1,0.9,0.1c3.3,2.6,5.1,5.9,5.5,9.8c1-1.2,2.3-2,3.5-2.6c0.3-0.1,0.6-0.1,0.8,0.1c0.2,0.2,0.3,0.5,0.3,0.8
			c-1.1,3.8,0.2,6.4,1.5,8.9c0.8,1.6,1.6,3.1,1.6,4.8c0,0,0,0.1,0,0.1C29.7,28.8,24.1,34.5,17.2,34.5z M6.1,22c0.1,6,5,10.9,11,10.9
			c6,0,11-4.9,11-10.9c0,0,0-0.1,0-0.1c0-1.4-0.7-2.7-1.5-4.3c-1.1-2.2-2.4-4.8-2-8.3c-1.2,0.8-2.2,1.9-2.8,3.6
			c-0.1,0.4-0.5,0.6-0.9,0.5c-0.4-0.1-0.6-0.4-0.6-0.8c0.4-4.2-0.8-7.5-3.5-10.2c0.3,4-0.6,6.9-3,10.3c-0.2,0.2-0.4,0.4-0.7,0.3
			c-0.3,0-0.5-0.2-0.6-0.4c-1-1.9-2.2-3.2-3.8-4.1c0.6,3.3-0.4,6-1.4,8.5c-0.7,1.7-1.3,3.2-1.3,4.7C6.1,21.9,6.1,22,6.1,22z"/>
		<path d="M13.1,20.6c-1.6,0-2.9-1.3-2.9-2.9s1.3-2.9,2.9-2.9c1.6,0,2.9,1.3,2.9,2.9S14.7,20.6,13.1,20.6z M13.1,16.3
			c-0.8,0-1.4,0.6-1.4,1.4s0.6,1.4,1.4,1.4c0.8,0,1.4-0.6,1.4-1.4S13.9,16.3,13.1,16.3z"/>
		<path d="M12,27.5c-0.2,0-0.4-0.1-0.5-0.2c-0.3-0.3-0.3-0.8,0-1.1L21.7,15c0.3-0.3,0.8-0.3,1.1,0
			c0.3,0.3,0.3,0.8,0,1.1L12.6,27.2C12.5,27.4,12.3,27.5,12,27.5z"/>
		<path d="M21.2,28.1c-1.6,0-2.9-1.3-2.9-2.9s1.3-2.9,2.9-2.9s2.9,1.3,2.9,2.9S22.8,28.1,21.2,28.1z M21.2,23.8
			c-0.8,0-1.4,0.6-1.4,1.4s0.6,1.4,1.4,1.4c0.8,0,1.4-0.6,1.4-1.4S21.9,23.8,21.2,23.8z"/>
	</g>
</g>
</svg>
