<svg height="374.367" viewBox="0 0 360.76 374.367" width="360.76" xmlns="http://www.w3.org/2000/svg"><path d="m288.624 63.684c-34.924-34.984-97.155-25.566-134.509 6.807s-55.989 80.726-73.247 127.045c-16.219 43.537-32.329 92.774-12.832 134.941 11.59 25.063 34.512 43.472 59.567 55.074s52.414 17.153 79.484 22.61c15.641 3.154 31.567 6.324 47.445 4.752 13.274-1.313 26.02-5.908 38.176-11.4 46.736-21.1 87.447-56.93 110.511-102.732s18.676-98.857 7.6-148.924c-19.324-87.371-160.836-116.857-189.546-109.925" fill="#ed6e16" transform="translate(-59.091 -40.962)"/></svg>