<svg height="234.117" viewBox="0 0 225.607 234.117" width="225.607" xmlns="http://www.w3.org/2000/svg"><path d="m202.633 55.171c-21.838-21.878-60.757-15.988-84.118 4.257s-35.015 50.484-45.806 79.45c-10.142 27.222-20.217 58.022-8.024 84.388 7.248 15.674 21.582 27.186 37.251 34.441s32.778 10.727 49.707 14.14c9.781 1.973 19.741 3.955 29.67 2.972 8.3-.821 16.272-3.694 23.874-7.126 29.227-13.194 54.687-35.6 69.11-64.245s11.679-61.822 4.752-93.132c-12.084-54.643-100.581-73.08-118.534-68.747" fill="#ed6e16" transform="translate(-59.091 -40.962)"/></svg>