<svg height="75.646" viewBox="0 0 55.076 75.646" width="55.076" xmlns="http://www.w3.org/2000/svg" xmlns:xlink="http://www.w3.org/1999/xlink"><clipPath id="a"><path d="m0 0h55.076v75.646h-55.076z"/></clipPath><g clip-path="url(#a)" fill="#32472b" stroke="#ed6e16"><path d="m51.315 217.969c-1.751.691-4.05.271-6.719-1.244a76.346 76.346 0 0 1 -8.918-6.241c-11.822-9.145-24.045-18.6-32.94-31.028-1.244-1.739-2.583-3.79-2.724-6.131-.245-4.044 2.922-7.34 5.468-9.99l.671-.7a29.737 29.737 0 0 1 10.075-7.12c1.991-.853 4.937-1.879 7.675-.9 3.039 1.086 4.694 4.149 6.127 7.192l12.532 26.566c1.02 2.16 2.074 4.393 3.06 6.62.339.767.674 1.538 1.009 2.309 1.942 4.476 3.951 9.1 7.053 12.9a4.52 4.52 0 0 1 1.392 2.826 4.259 4.259 0 0 1 -.89 2.17 7.925 7.925 0 0 1 -2.075 2.366 4.193 4.193 0 0 1 -.794.415m-50.544-44.702c.13 2.14 1.4 4.083 2.583 5.736 8.829 12.335 21.009 21.758 32.787 30.869a75.744 75.744 0 0 0 8.828 6.181c1.972 1.118 4.736 2.171 6.715.86a7.343 7.343 0 0 0 1.862-2.152 3.615 3.615 0 0 0 .763-1.771 3.785 3.785 0 0 0 -1.163-2.255c-3.225-3.944-5.254-8.621-7.218-13.144q-.5-1.155-1.007-2.3c-.983-2.221-2.034-4.45-3.051-6.605l-12.531-26.569c-1.367-2.9-2.932-5.812-5.7-6.8-1.889-.674-4.152-.393-7.116.885a28.99 28.99 0 0 0 -9.825 6.945l-.674.7c-2.564 2.679-5.476 5.711-5.253 9.42" transform="translate(0 -142.645)"/><path d="m53.248 188.631a.383.383 0 0 1 -.472-.166 12.038 12.038 0 0 1 -1.638-7.171.382.382 0 0 1 .757.1 11.091 11.091 0 0 0 1.358 6.353 5.187 5.187 0 0 0 1.859-2.078l.143-.3c.29-.631.582-1.358 1.361-1.612a2.659 2.659 0 0 1 2.107.41 2.128 2.128 0 0 0 1.495.383.37.37 0 0 0 .044-.016 1.373 1.373 0 0 0 .631-1.482 5.308 5.308 0 0 0 -.515-1.422c-.1-.215-.2-.43-.289-.647a2.831 2.831 0 0 1 -.02-2.574.378.378 0 0 1 .3-.182 15.215 15.215 0 0 0 7.322-2.454 6.624 6.624 0 0 0 -4.488-3.311.382.382 0 0 1 .152-.748 7.556 7.556 0 0 1 5.176 3.984.379.379 0 0 1 -.114.5 15.94 15.94 0 0 1 -7.781 2.77 2.41 2.41 0 0 0 .158 1.724c.085.206.179.41.275.613a6.066 6.066 0 0 1 .577 1.631 2.123 2.123 0 0 1 -1.19 2.336 2.728 2.728 0 0 1 -2.075-.428 2.064 2.064 0 0 0 -1.5-.372l-.021.008c-.426.168-.661.674-.907 1.208l-.151.315a5.956 5.956 0 0 1 -2.508 2.607c-.015.008-.029.014-.042.02" transform="translate(-47.237 -158.827)"/><path d="m10.455 19.695a.8.8 0 0 1 -.179.048 1.081 1.081 0 0 1 -.743-.233 14.031 14.031 0 0 1 -5.841-9.087c-.332-1.959-.431-7.723 1.308-9.694a1.98 1.98 0 0 1 1.613-.729 1.961 1.961 0 0 1 1.56.634 2.775 2.775 0 0 1 .164 2.276 7.039 7.039 0 0 0 -.119.7 13.977 13.977 0 0 0 .7 5.626 24.542 24.542 0 0 0 4.218 7.409.38.38 0 0 1 -.031.5l-2.225 2.242a1.239 1.239 0 0 1 -.428.313m-4.341-18.864a1.428 1.428 0 0 0 -.539.4c-1.547 1.755-1.434 7.264-1.129 9.064a13.256 13.256 0 0 0 5.517 8.579c.136.092.189.111.209.11a.9.9 0 0 0 .172-.141l1.99-2.006a24.966 24.966 0 0 1 -4.131-7.374 14.727 14.727 0 0 1 -.734-5.935c.022-.237.074-.5.128-.773.121-.614.26-1.308-.014-1.656a1.307 1.307 0 0 0 -.998-.344 1.128 1.128 0 0 0 -.471.076m2.447 8.513h.008z" transform="translate(-3.235 .005)"/></g></svg>