<svg height="132.448" viewBox="0 0 140.765 132.448" width="140.765" xmlns="http://www.w3.org/2000/svg" xmlns:xlink="http://www.w3.org/1999/xlink"><clipPath id="a"><path d="m0 0h109.778v120.576h-109.778z"/></clipPath><g clip-path="url(#a)" fill="#6ca63b" stroke="#fa9522" stroke-width="2" transform="matrix(-.208 -.978 .978 -.208 22.824 132.448)"><path d="m.873 102.3a2.194 2.194 0 0 1 -.811-1.3c-.324-1.5.687-3.353 1.319-4.325a60.506 60.506 0 0 0 5.547-12.193c.562-1.523 1.122-3.044 1.725-4.546 4.66-11.624 11.837-22.081 18.777-32.193 5.027-7.323 10.223-14.892 16.479-21.435a40.919 40.919 0 0 1 10.556-8.342 19.945 19.945 0 0 1 13.278-2.053 17.151 17.151 0 0 1 9.29 6.211c4.4 3.714 4.759 10.251 3.175 14.913-1.776 5.231-5.664 9.4-9.494 13.212a271.436 271.436 0 0 1 -28.727 24.879c-2.978 2.236-6.016 4.418-8.953 6.527l-27.7 19.9c-.659.472-2.658 1.909-4.272.882-.067-.045-.133-.09-.193-.137m72.2-82.61a14.215 14.215 0 0 0 -5.563-2.731 18.842 18.842 0 0 0 -12.555 1.961 39.891 39.891 0 0 0 -10.267 8.13c-6.2 6.479-11.367 14.014-16.366 21.3-6.91 10.065-14.055 20.472-18.67 31.985-.6 1.493-1.156 3.006-1.714 4.518a61.241 61.241 0 0 1 -5.653 12.406 5.428 5.428 0 0 0 -1.169 3.514 1.153 1.153 0 0 0 .532.762c.674.429 1.676.152 3.068-.85l27.7-19.9c2.935-2.107 5.967-4.287 8.936-6.514a270.707 270.707 0 0 0 28.614-24.78c3.737-3.727 7.533-7.786 9.234-12.8a15.166 15.166 0 0 0 .44-8.016 23.3 23.3 0 0 0 -3.356-5.784c-.124-.1-.255-.21-.393-.309a.457.457 0 0 1 -.217-.423 19.045 19.045 0 0 0 -2.6-2.465" transform="translate(0 17.775)"/><path d="m22.826 33.173a25.8 25.8 0 0 1 -6.22-6.975.537.537 0 1 1 .92-.554 24.955 24.955 0 0 0 13.508 10.708.537.537 0 0 1 -.328 1.023 25.784 25.784 0 0 1 -7.88-4.2" transform="translate(18.934 29.075)"/><path d="m19.822 37.024a25.8 25.8 0 0 1 -6.22-6.975.537.537 0 1 1 .92-.554 24.955 24.955 0 0 0 13.508 10.705.537.537 0 0 1 -.328 1.023 25.784 25.784 0 0 1 -7.88-4.2" transform="translate(15.493 33.486)"/><path d="m16.821 40.874a25.764 25.764 0 0 1 -6.221-6.974.535.535 0 1 1 .916-.554 24.952 24.952 0 0 0 13.51 10.708.538.538 0 1 1 -.33 1.023 25.787 25.787 0 0 1 -7.876-4.2" transform="translate(12.053 37.898)"/><path d="m41.859 41.035a.487.487 0 0 1 -.06-.056.536.536 0 0 1 .021-.757c1.483-1.4 3.888-1.809 6.436-1.092a22.807 22.807 0 0 1 3.544 1.431c.744.352 1.515.714 2.287 1.008a16.041 16.041 0 0 0 10.586.283 4.585 4.585 0 0 0 2.553-1.635 3.46 3.46 0 0 0 -.626-3.879 11.322 11.322 0 0 0 -3.866-2.525.535.535 0 0 1 -.217-.781 10.022 10.022 0 0 1 4.152-3.1c.466-.238.931-.474 1.377-.727 3.107-1.774 5.188-4.709 5.426-7.657.272-3.325-2.1-6.552-5.063-6.908-2.366-.279-4.463 1.026-6.683 2.409a22.855 22.855 0 0 1 -4.061 2.165 1.7 1.7 0 0 1 -1.806-.107 1.723 1.723 0 0 1 -.427-1.781 15.783 15.783 0 0 1 2.59-5.409c.373-.575.744-1.152 1.088-1.74.742-1.274 2.309-4.5.85-6.932a5.116 5.116 0 0 0 -5.115-2.1 9.8 9.8 0 0 0 -5.289 2.95 18.123 18.123 0 0 0 -3.879 5.6c-.414.946-1.517 3.463-3.527 3.074a2.936 2.936 0 0 1 -2.055-2.491c-.069-.363-.105-.732-.137-1.1a6.094 6.094 0 0 0 -.281-1.57 3.427 3.427 0 0 0 -4.02-1.858 5.266 5.266 0 0 0 -3.431 3.495 10.535 10.535 0 0 0 -.161 5.3 20.447 20.447 0 0 0 2.075 5.955c.478.9 1.041 1.791 1.586 2.654a25.142 25.142 0 0 1 2.566 4.806c.989 2.748.886 6.413-1.575 8.41a.516.516 0 0 1 -.753-.079.535.535 0 0 1 .079-.753c2.049-1.665 2.1-4.823 1.236-7.215a23.891 23.891 0 0 0 -2.461-4.6c-.554-.878-1.129-1.785-1.626-2.72a21.616 21.616 0 0 1 -2.182-6.271 11.557 11.557 0 0 1 .2-5.838 6.33 6.33 0 0 1 4.175-4.186 4.473 4.473 0 0 1 5.293 2.508 7.108 7.108 0 0 1 .343 1.847c.03.335.062.669.122 1 .131.672.53 1.513 1.206 1.639.8.152 1.54-.626 2.343-2.454a19.179 19.179 0 0 1 4.108-5.929 10.824 10.824 0 0 1 5.885-3.244 6.132 6.132 0 0 1 6.19 2.611c1.238 2.06.931 4.986-.841 8.026-.352.6-.732 1.191-1.114 1.783a14.8 14.8 0 0 0 -2.439 5.031c-.073.378-.051.657.058.747.114.09.384.062.747-.073a21.878 21.878 0 0 0 3.868-2.068c2.278-1.42 4.634-2.888 7.374-2.566 3.516.416 6.327 4.182 6.009 8.058-.268 3.3-2.553 6.557-5.964 8.5-.463.262-.944.506-1.427.753a10.8 10.8 0 0 0 -3.36 2.244 10.649 10.649 0 0 1 3.624 2.512 4.5 4.5 0 0 1 .723 5.145 5.568 5.568 0 0 1 -3.133 2.098 17.136 17.136 0 0 1 -11.3-.3c-.809-.309-1.6-.682-2.364-1.043a21.7 21.7 0 0 0 -3.375-1.369c-2.182-.611-4.2-.3-5.409.841a.537.537 0 0 1 -.7.032" transform="translate(35.211 -.001)"/></g></svg>