<svg xmlns="http://www.w3.org/2000/svg" xmlns:xlink="http://www.w3.org/1999/xlink" width="349.048" height="371.989" viewBox="0 0 349.048 371.989">
  <defs>
    <clipPath id="clip-path">
      <rect id="Rectángulo_3" data-name="Rectángulo 3" width="295" height="247.571" fill="none"/>
    </clipPath>
  </defs>
  <g id="Grupo_181" data-name="Grupo 181" transform="translate(349.048 104.628) rotate(115)">
    <g id="Grupo_85" data-name="Grupo 85" transform="translate(0 0)" clip-path="url(#clip-path)">
      <path id="Trazado_48" data-name="Trazado 48" d="M135.989,13.168c21.729-9.6,45.7-15.086,69.322-12.55s46.8,13.7,61.117,32.652c11.462,15.175,16.629,34.118,20.32,52.772A434.827,434.827,0,0,1,293.936,200.7c-1.072,15.286-3.995,32.367-16.476,41.257-8.018,5.711-18.706,6.752-28.3,4.521s-18.235-7.42-26.129-13.3c-23.264-17.345-41.059-40.946-57.059-65.156-7.85-11.878-15.668-24.32-27.38-32.412-8.516-5.883-18.567-9.079-28.541-11.844a446.5,446.5,0,0,0-53.9-11.418C38.2,109.7,18.027,107.02,6.97,92.638-3.1,79.543-1.649,60.007,7.407,46.2s24.3-22.522,40.064-27.454A120.24,120.24,0,0,1,80.549,13.3c13.622-.313,27.243,1.693,40.851,1.009a103.709,103.709,0,0,0,20.829-3.191" transform="translate(0 0)" fill="#6ca63b"/>
    </g>
  </g>
</svg>
