<svg xmlns="http://www.w3.org/2000/svg" width="78" height="102.201" viewBox="0 0 78 102.201">
  <g id="HEALTHY_SCOOPS_-_ELEMENTOS_GRA패FICOS-13" data-name="HEALTHY SCOOPS - ELEMENTOS GRA패FICOS-13" transform="translate(-188.743 -41.395)">
    <g id="Grupo_120" data-name="Grupo 120" transform="translate(188.743 41.395)">
      <g id="Grupo_113" data-name="Grupo 113" transform="translate(14.166 37.13)">
        <rect id="Rect치ngulo_27" data-name="Rect치ngulo 27" width="0.268" height="1.344" transform="matrix(0.68, -0.733, 0.733, 0.68, 0, 0.197)" fill="#32472b"/>
      </g>
      <g id="Grupo_119" data-name="Grupo 119" transform="translate(0)">
        <g id="Grupo_114" data-name="Grupo 114">
          <path id="Trazado_685" data-name="Trazado 685" d="M189.664,143.338a3.892,3.892,0,0,1-.918-2.207c.081-.624.8-1.121,1.886-1.806.211-.132.387-.24.469-.308a52.5,52.5,0,0,0,5.508-5.263,50.154,50.154,0,0,0,8.335-12.691h0c1.062-2.327.973-4.715.878-7.244-.045-1.2-.091-2.436-.015-3.7.931-15.471,7.048-31.572,12.017-42.355,3.747-8.13,10.077-18.776,18.959-23.317,8.08-4.132,22.029-5.113,27.2,3.8a21.207,21.207,0,0,1,2.459,8.212c1.745,14.013-4.154,29.814-16.185,43.349a64.833,64.833,0,0,1-18.746,14.943c-3.031,1.548-6.213,2.914-9.289,4.238-5.651,2.43-11.493,4.942-16.535,8.638-.144.1-.285.208-.423.312-5.608,4.225-10.025,9.86-14.3,15.309a.853.853,0,0,1-1.021.282A.993.993,0,0,1,189.664,143.338Zm.449-2a4.723,4.723,0,0,0,.2.566q.613-.782,1.233-1.567l-.2.127A9.313,9.313,0,0,0,190.113,141.337Zm70.671-94.969c-5.763-5.352-16.693-4.149-23.389-.725-8.539,4.366-14.691,14.745-18.35,22.682C214.124,79,208.066,94.936,207.15,110.2c-.073,1.2-.028,2.408.016,3.572.1,2.575.2,5.236-1,7.853h0a51.064,51.064,0,0,1-3.881,6.989q1.056-.9,2.17-1.746c.144-.11.292-.219.441-.327,5.162-3.784,11.076-6.326,16.8-8.786,3.057-1.313,6.217-2.673,9.209-4.2a63.511,63.511,0,0,0,18.352-14.639c11.772-13.243,17.551-28.658,15.854-42.289a19.946,19.946,0,0,0-2.287-7.7A11.018,11.018,0,0,0,260.784,46.368Z" transform="translate(-188.743 -41.395)" fill="#32472b"/>
        </g>
        <g id="Grupo_115" data-name="Grupo 115" transform="translate(12.537 3.091)">
          <path id="Trazado_686" data-name="Trazado 686" d="M312.153,156.253l-.943-.958c4.743-4.664,8.367-10.4,11.872-15.957,5.747-9.107,11.69-18.524,15.582-28.742.391-1.027.762-2.062,1.132-3.1.776-2.166,1.579-4.407,2.566-6.543a51.171,51.171,0,0,1,4.508-7.723A72.694,72.694,0,0,1,370.61,71.59l.662,1.17A71.337,71.337,0,0,0,347.975,94a49.678,49.678,0,0,0-4.393,7.519c-.962,2.083-1.755,4.294-2.52,6.434-.374,1.043-.747,2.086-1.141,3.121-3.94,10.344-9.92,19.819-15.7,28.981C320.672,145.673,317.006,151.481,312.153,156.253Z" transform="translate(-311.21 -71.59)" fill="#32472b"/>
        </g>
        <g id="Grupo_116" data-name="Grupo 116" transform="translate(45.683 3.803)">
          <path id="Trazado_687" data-name="Trazado 687" d="M636.6,101.869a.664.664,0,0,1-.2-.344,57.539,57.539,0,0,1-.461-22.975l1.322.244a56.224,56.224,0,0,0,.319,21.843,200.91,200.91,0,0,0,29.241-5.767l.357,1.3a202.288,202.288,0,0,1-30.045,5.879A.665.665,0,0,1,636.6,101.869Z" transform="translate(-634.998 -78.55)" fill="#32472b"/>
        </g>
        <g id="Grupo_117" data-name="Grupo 117" transform="translate(32.682 19.57)">
          <path id="Trazado_688" data-name="Trazado 688" d="M515.776,254.988a4.41,4.41,0,0,1-.656-.822c-4.973-7.534-7.1-13.993-7.12-21.594l1.344,0c.016,7.318,2.079,13.556,6.9,20.856a1.913,1.913,0,0,0,.679.733,1.973,1.973,0,0,0,.948.017c10.331-1.294,20.806-2.685,31.13-4.137l.186,1.331c-10.332,1.453-20.812,2.846-31.15,4.141a3.1,3.1,0,0,1-1.644-.116A2.192,2.192,0,0,1,515.776,254.988Z" transform="translate(-508 -232.57)" fill="#32472b"/>
        </g>
        <g id="Grupo_118" data-name="Grupo 118" transform="translate(24.237 37.363)">
          <path id="Trazado_689" data-name="Trazado 689" d="M432.489,429.755a.666.666,0,0,1-.177-.27c-2.615-7.452-4.907-15.116-6.812-22.78l1.3-.324c1.859,7.476,4.088,14.953,6.625,22.23a103.147,103.147,0,0,0,29.319-2.979l.327,1.3a104.458,104.458,0,0,1-30.16,3A.66.66,0,0,1,432.489,429.755Z" transform="translate(-425.5 -406.38)" fill="#32472b"/>
        </g>
      </g>
    </g>
  </g>
</svg>
