<svg xmlns="http://www.w3.org/2000/svg" width="204.447" height="171.644" viewBox="0 0 204.447 171.644">
  <g id="HEALTHY_SCOOPS_-_ELEMENTOS_GRÁFICOS-15" data-name="HEALTHY SCOOPS - ELEMENTOS GRÁFICOS-15" transform="matrix(-0.208, 0.978, -0.978, -0.208, 356.33, -72.76)">
    <g id="Grupo_165" data-name="Grupo 165" transform="translate(139.322 125.662)">
      <g id="Grupo_164" data-name="Grupo 164">
        <g id="Grupo_163" data-name="Grupo 163">
          <path id="Trazado_786" data-name="Trazado 786" d="M1064.124,1220.109a6.842,6.842,0,0,1-1.616-3.883c.141-1.1,1.407-1.972,3.319-3.179.368-.235.684-.422.824-.544a92.07,92.07,0,0,0,9.692-9.261,88.284,88.284,0,0,0,14.667-22.332h0c1.871-4.091,1.71-8.3,1.548-12.749-.08-2.106-.161-4.286-.026-6.519,1.637-27.223,12.4-55.557,21.146-74.529,6.591-14.306,17.73-33.036,33.357-41.029,14.217-7.271,38.764-9,47.862,6.686,2.2,3.781,3.569,8.376,4.327,14.453,3.071,24.659-7.311,52.464-28.477,76.278-10.214,11.488-21.312,20.333-32.982,26.3-5.331,2.722-10.931,5.13-16.344,7.457-9.945,4.278-20.219,8.7-29.092,15.2-.256.182-.5.37-.744.55-9.865,7.438-17.638,17.35-25.155,26.939a1.507,1.507,0,0,1-1.8.5A1.553,1.553,0,0,1,1064.124,1220.109Zm.791-3.521a8,8,0,0,0,.355,1q1.077-1.378,2.167-2.756c-.108.066-.229.141-.35.221A16.025,16.025,0,0,0,1064.915,1216.589Zm124.357-167.11c-10.14-9.416-29.373-7.3-41.157-1.274-15.022,7.686-25.853,25.947-32.292,39.909-8.657,18.792-19.32,46.825-20.93,73.684-.128,2.112-.048,4.239.026,6.284.168,4.527.342,9.215-1.757,13.815h0a89.718,89.718,0,0,1-6.828,12.3c1.241-1.06,2.508-2.086,3.815-3.071.256-.194.518-.383.778-.577,9.082-6.659,19.489-11.133,29.556-15.458,5.379-2.314,10.938-4.7,16.2-7.392,11.415-5.827,22.279-14.492,32.292-25.759,20.715-23.3,30.883-50.426,27.9-74.414-.718-5.747-1.993-10.06-4.024-13.555A19.4,19.4,0,0,0,1189.272,1049.479Z" transform="translate(-1062.503 -1040.716)" fill="#f1f1f1"/>
        </g>
      </g>
    </g>
  </g>
</svg>
