<svg xmlns="http://www.w3.org/2000/svg" xmlns:xlink="http://www.w3.org/1999/xlink" width="292.108" height="486.739" viewBox="0 0 292.108 486.739">
  <defs>
    <clipPath id="clip-path">
      <rect id="Rect치ngulo_49" data-name="Rect치ngulo 49" width="118.949" height="91.946" fill="#fa9522" stroke="#fa9522" stroke-width="2"/>
    </clipPath>
  </defs>
  <g id="tb-leaft-carrot" transform="translate(112.354 -2773.171)">
    <g id="HEALTHY_SCOOPS_-_ELEMENTOS_GRA패FICOS-20" data-name="HEALTHY SCOOPS - ELEMENTOS GRA패FICOS-20" transform="translate(-118.649 2760.955)">
      <path id="Trazado_684" data-name="Trazado 684" d="M111.046,129.275c-15.939,3.609-25.934,10.613-36.964,22.672C66.255,160.5,59.261,169.96,54.6,180.579a103.764,103.764,0,0,0-7.461,28.956c-4.056,32.583,3.119,67.7,24.936,92.238a105.226,105.226,0,0,0,26.06,20.93c38.688,22.384,89.216,21.444,128.147-.516s65.545-63.555,71.369-107.87c1.027-7.816,1.4-16.029-1.589-23.321-3.622-8.823-11.791-15.124-20.606-18.769a57.386,57.386,0,0,0-43.309-.013c-8.051,3.323-15.229,8.452-23.112,12.156a72.316,72.316,0,0,1-54.714,2.5c-4.971-1.8-9.967-4.348-12.915-8.736-6.34-9.443-.738-22.885-5.466-33.23a24.084,24.084,0,0,0-6.672-8.281c-6.386-5.326-14.912-8.411-23.125-7.106S74.858,140.928,62.02,167.181" transform="translate(0 0)" fill="#679729"/>
    </g>
    <g id="Grupo_129" data-name="Grupo 129" transform="translate(-562 1618.91)">
      <g id="Grupo_90" data-name="Grupo 90" transform="translate(449.646 1352.81)">
        <path id="Trazado_658" data-name="Trazado 658" d="M143.409,396.845a6.625,6.625,0,0,1-2.193-3.878,25.858,25.858,0,0,1-2.785-3.659,1.613,1.613,0,0,1-.168-1.359c1.577-4.773,5.546-7.733,9.384-10.595,2.906-2.169,5.654-4.218,7.406-6.969,1.931-3.037,2.563-6.956,3.121-10.41,2.348-14.567,4.779-29.632,2.913-44.455a160.489,160.489,0,0,0-3.256-16.43c-2.122-9.041-4.315-18.388-3.74-27.886.885-14.634,8.432-29.78,22.431-45.016,4.87-5.3,10.161-10.339,15.277-15.209,6.8-6.475,13.834-13.168,19.868-20.493,1.4-1.7,2.792-3.454,4.2-5.234,8.842-11.153,18.859-23.8,33.463-24.479a47.875,47.875,0,0,1,5.714.182,45.392,45.392,0,0,0,5.281.178c8.876-.394,17.574-6,26.588-17.14,1.446-1.786,2.856-3.619,4.272-5.456,5.566-7.228,11.321-14.7,19.32-19.488,10.252-6.135,22.6-6.959,35.4-7.309,19.37-.531,39.568-.111,54.965,11.076,2.065,1.5,4.978,3.881,6.465,7.241,2,4.52,1.063,9.505-.249,14.217-1.917,6.885-4.457,13.706-6.912,20.308-4.473,12.018-9.095,24.442-9.9,37.27a133.514,133.514,0,0,0,.622,18.879c.582,7.262,1.187,14.766.38,22.185A60.638,60.638,0,0,1,373.2,279.606c-10.258,9.818-23.672,15.667-36.645,21.324-15.812,6.9-30.745,13.407-40.452,26.467-1.51,2.028-2.916,4.268-4.275,6.431-3.31,5.267-6.73,10.713-12.145,14.167-3.865,2.465-8.274,3.6-12.539,4.692a61.7,61.7,0,0,0-8.146,2.5,59.216,59.216,0,0,0-11.2,6.71,90.85,90.85,0,0,1-8,5.2c-10.5,5.819-22.881,7.326-34.855,8.779-15.132,1.843-29.427,3.579-39.719,13.387-.858.821-1.688,1.692-2.516,2.566-2.529,2.667-5.146,5.425-8.745,6.841a9.776,9.776,0,0,1-2.741.632l-.2.494c-.363-.145-.723-.3-1.08-.461a10.659,10.659,0,0,1-5.758-1.863A8.543,8.543,0,0,1,143.409,396.845Zm-1.836-8.594a23.524,23.524,0,0,0,9.058,7.85,6.675,6.675,0,0,0,2.146-.431c2.936-1.157,5.2-3.542,7.591-6.064.864-.911,1.732-1.823,2.63-2.681,11.062-10.538,26.558-12.425,41.545-14.248,11.668-1.419,23.732-2.886,33.685-8.4a87.957,87.957,0,0,0,7.712-5.018,62.59,62.59,0,0,1,11.819-7.046,64.142,64.142,0,0,1,8.573-2.637c4.208-1.08,8.18-2.1,11.611-4.288,4.81-3.067,7.894-7.975,11.156-13.168,1.392-2.217,2.832-4.507,4.416-6.636,10.221-13.75,26.248-20.736,41.747-27.5,12.714-5.543,25.862-11.274,35.706-20.7a57.4,57.4,0,0,0,17.106-34.717c.777-7.12.185-14.473-.387-21.583a136.384,136.384,0,0,1-.629-19.336c.834-13.3,5.543-25.952,10.094-38.189,2.432-6.539,4.948-13.3,6.828-20.049,1.15-4.137,2-8.462.407-12.061-1.174-2.654-3.653-4.662-5.415-5.943-14.584-10.595-34.176-10.978-52.991-10.46-12.835.353-24.237,1.11-33.836,6.855-7.477,4.477-13.043,11.7-18.428,18.694-1.429,1.857-2.856,3.71-4.315,5.516-9.63,11.9-19.094,17.894-28.942,18.327a48.3,48.3,0,0,1-5.654-.185,44.128,44.128,0,0,0-5.334-.175c-13.144.619-22.269,12.132-31.1,23.268-1.423,1.8-2.829,3.572-4.241,5.284-6.158,7.474-13.262,14.237-20.13,20.776-5.079,4.833-10.329,9.831-15.129,15.055-13.484,14.678-20.749,29.158-21.59,43.035-.548,9.031,1.594,18.149,3.659,26.961a163.155,163.155,0,0,1,3.32,16.76c1.924,15.28-.542,30.574-2.93,45.366-.605,3.76-1.295,8.025-3.582,11.624-2.069,3.249-5.183,5.573-8.193,7.82C146.194,382.443,143,384.828,141.573,388.252Z" transform="translate(-138.184 -111.598)" fill="#32472b"/>
      </g>
      <g id="Grupo_91" data-name="Grupo 91" transform="translate(469.008 1387.931)">
        <path id="Trazado_659" data-name="Trazado 659" d="M196.941,447.028a5.113,5.113,0,0,1-1.191-1.608l2.889-1.4A1.782,1.782,0,0,0,200,445.067c1.688.346,4.6-.777,6.633-2.556,13.2-11.55,21.64-27.634,29.8-43.193,3.02-5.758,6.145-11.715,9.475-17.376,14.234-24.21,33.042-44.9,56.9-68.5,34.085-33.719,70.511-66.1,105.743-97.419l2.139,2.395-.007,0c-35.2,31.29-71.594,63.643-105.612,97.3-23.682,23.433-42.332,43.937-56.391,67.847-3.289,5.6-6.4,11.516-9.4,17.244-8.3,15.818-16.881,32.175-30.53,44.118-2.321,2.028-6.249,3.925-9.391,3.283A5.071,5.071,0,0,1,196.941,447.028Z" transform="translate(-195.75 -216.02)" fill="#32472b"/>
      </g>
    </g>
    <g id="Grupo_216" data-name="Grupo 216" transform="matrix(0.208, 0.978, -0.978, 0.208, 143.521, 2773.171)">
      <g id="Grupo_198" data-name="Grupo 198" transform="translate(0 0)" clip-path="url(#clip-path)">
        <path id="Trazado_828" data-name="Trazado 828" d="M30.98,88.309a35.329,35.329,0,0,1-20.144-6.72,3.254,3.254,0,0,1-1.1-1.124,3.373,3.373,0,0,1-.273-1.655,34.576,34.576,0,0,1,.937-8.966,34.6,34.6,0,0,1,2.7-6.253c.437-.856.89-1.74,1.3-2.618.969-2.084,1.768-4.3,2.541-6.439.635-1.764,1.293-3.586,2.047-5.344C24.3,36.818,35.323,25.971,50.032,18.645,63.378,12,78.186,8.716,92.209,5.924l.173-.036a42.7,42.7,0,0,0,9.58-2.691c.427-.2.951-.483,1.555-.813C106.232.9,109.948-1.134,112.354.777c1.926,1.53,1.431,5.257,1.068,7.979-.084.64-.158,1.192-.184,1.61a33.651,33.651,0,0,1-1.347,8.829A33.608,33.608,0,0,1,107,27.707L92.283,48.31a57.341,57.341,0,0,1-5.976,7.451,56.491,56.491,0,0,1-7.894,6.214c-10.969,7.614-19.994,13.747-28.4,19.3a49.373,49.373,0,0,1-9.823,5.438,26.483,26.483,0,0,1-9.212,1.59M109.985,1.282c-1.806,0-4.158,1.287-5.858,2.217-.626.341-1.166.636-1.634.852A43.648,43.648,0,0,1,92.63,7.135l-.173.034C78.517,9.944,63.8,13.205,50.6,19.783,36.159,26.974,25.348,37.6,20.154,49.69c-.74,1.725-1.391,3.529-2.021,5.274-.78,2.168-1.589,4.408-2.584,6.544-.42.9-.878,1.8-1.322,2.662a33.734,33.734,0,0,0-2.608,6.022,33.651,33.651,0,0,0-.89,8.639,2.383,2.383,0,0,0,.13,1.05,2.2,2.2,0,0,0,.711.672c8.809,6.247,19.605,8.153,28.181,4.974a48.4,48.4,0,0,0,9.565-5.305c8.4-5.553,17.413-11.682,28.374-19.289a55.455,55.455,0,0,0,7.722-6.07,56.661,56.661,0,0,0,5.839-7.29l14.714-20.6a32.648,32.648,0,0,0,4.724-8.182,32.7,32.7,0,0,0,1.284-8.5c.028-.463.1-1.036.192-1.7.3-2.284.762-5.736-.6-6.818a2.459,2.459,0,0,0-1.578-.489" transform="translate(5.186 0.001)" fill="#fa9522" stroke="#fa9522" stroke-width="2"/>
        <path id="Trazado_829" data-name="Trazado 829" d="M5.933,63.084,4.806,62.5a21.781,21.781,0,0,1,10.677-9.878l.5,1.171A20.487,20.487,0,0,0,5.933,63.084" transform="translate(2.636 28.863)" fill="#fa9522" stroke="#fa9522" stroke-width="2"/>
        <path id="Trazado_830" data-name="Trazado 830" d="M.78,61.221l-.78-1a40.346,40.346,0,0,1,11.336-6.211c.282-.1.6-.206.946-.317a11.84,11.84,0,0,0,3.684-1.641l.847.949a12.572,12.572,0,0,1-4.136,1.9c-.333.108-.644.211-.917.307A39.06,39.06,0,0,0,.78,61.221" transform="translate(0 28.548)" fill="#fa9522" stroke="#fa9522" stroke-width="2"/>
        <path id="Trazado_831" data-name="Trazado 831" d="M.877,54.018c-.279,0-.556,0-.835-.006l.019-1.27a57.634,57.634,0,0,0,8.325-.492l.8-.1a13.622,13.622,0,0,0,5.746-1.6l.65,1.092a14.794,14.794,0,0,1-6.236,1.765l-.794.1a58.377,58.377,0,0,1-7.676.509" transform="translate(0.023 27.725)" fill="#fa9522" stroke="#fa9522" stroke-width="2"/>
        <path id="Trazado_832" data-name="Trazado 832" d="M29.426,42.923l-1.248-.246c.081-.4-.269-.9-.6-1.339-2.8-3.645-6.274-8.182-11.045-10.082L17,30.075c5.093,2.03,8.693,6.72,11.583,10.489a2.984,2.984,0,0,1,.844,2.358" transform="translate(9.066 16.496)" fill="#fa9522" stroke="#fa9522" stroke-width="2"/>
        <path id="Trazado_833" data-name="Trazado 833" d="M41.49,25.438A30.116,30.116,0,0,0,33.3,15.81c-.423-.322-.553-.283-.551-.282l-.5-1.168a1.861,1.861,0,0,1,1.826.44A31.4,31.4,0,0,1,42.61,24.837Z" transform="translate(17.686 7.818)" fill="#fa9522" stroke="#fa9522" stroke-width="2"/>
        <path id="Trazado_834" data-name="Trazado 834" d="M58.646,19.993A26.313,26.313,0,0,0,53.034,7l.988-.8A27.575,27.575,0,0,1,59.9,19.821Z" transform="translate(29.087 3.401)" fill="#fa9522" stroke="#fa9522" stroke-width="2"/>
        <path id="Trazado_835" data-name="Trazado 835" d="M60.02,43.01c-.7-5.333-3.287-12.608-7.5-16.838l.9-.9c4.727,4.746,7.19,12.431,7.862,17.569Z" transform="translate(28.804 13.863)" fill="#fa9522" stroke="#fa9522" stroke-width="2"/>
        <path id="Trazado_836" data-name="Trazado 836" d="M48.157,52.258l-.322-1.229a.289.289,0,0,0-.181.136,2.891,2.891,0,0,0-.235-1.408A53.177,53.177,0,0,0,38.553,36.43l.94-.855a54.361,54.361,0,0,1,9.076,13.647A3.6,3.6,0,0,1,48.8,51.7a.986.986,0,0,1-.646.554" transform="translate(21.145 19.512)" fill="#fa9522" stroke="#fa9522" stroke-width="2"/>
        <path id="Trazado_837" data-name="Trazado 837" d="M25.735,59.825a21.483,21.483,0,0,1-4.6-8.447l1.223-.341a20.232,20.232,0,0,0,4.326,7.945Z" transform="translate(11.592 27.993)" fill="#fa9522" stroke="#fa9522" stroke-width="2"/>
      </g>
    </g>
  </g>
</svg>
