<?xml version="1.0" encoding="UTF-8"?>
<svg id="Layer_1" data-name="Layer 1" xmlns="http://www.w3.org/2000/svg" xmlns:xlink="http://www.w3.org/1999/xlink" version="1.1" viewBox="0 0 365.1 328">
  <defs>
    <style>
      .cls-1 {
        clip-path: url(#clippath);
      }

      .cls-2 {
        fill: none;
      }

      .cls-2, .cls-3, .cls-4 {
        stroke-width: 0px;
      }

      .cls-5 {
        fill: #fa9522;
        stroke: #fa9522;
        stroke-miterlimit: 4;
        stroke-width: 1px;
      }

      .cls-3 {
        fill: #32472b;
      }

      .cls-6 {
        clip-path: url(#clippath-1);
      }

      .cls-4 {
        fill: #6ca63b;
      }
    </style>
    <clipPath id="clippath">
      <rect class="cls-2" x="70.1" y="80.5" width="295" height="247.6"/>
    </clipPath>
    <clipPath id="clippath-1">
      <rect class="cls-2" x="151.2" y=".3" width="40.6" height="79.8" transform="translate(36.2 153) rotate(-53)"/>
    </clipPath>
  </defs>
  <g class="cls-1">
    <path class="cls-4" d="M206.1,93.6c21.7-9.6,45.7-15.1,69.3-12.6s46.8,13.7,61.1,32.7c11.5,15.2,16.6,34.1,20.3,52.8,7.5,37.7,9.9,76.3,7.2,114.7-1.1,15.3-4,32.4-16.5,41.3-8,5.7-18.7,6.8-28.3,4.5s-18.2-7.4-26.1-13.3c-23.3-17.3-41.1-40.9-57.1-65.2-7.9-11.9-15.7-24.3-27.4-32.4-8.5-5.9-18.6-9.1-28.5-11.8-17.7-4.9-35.7-8.7-53.9-11.4-18-2.6-38.1-5.3-49.2-19.7-10.1-13.1-8.6-32.6.4-46.4s24.3-22.5,40.1-27.5c10.7-3.4,21.9-5.2,33.1-5.4,13.6-.3,27.2,1.7,40.9,1,7-.4,14-1.4,20.8-3.2"/>
  </g>
  <path class="cls-3" d="M80.8,165.8l.2-.2,1,.9-.2.2-1-.9Z"/>
  <path class="cls-3" d="M67.5,230.4c-.5-.6-.9-1.4-.9-2.2,0-.6.8-1.1,1.9-1.8.2-.1.4-.2.5-.3,2-1.6,3.8-3.4,5.5-5.3,3.4-3.8,6.2-8.1,8.3-12.7,1.1-2.3,1-4.7.9-7.2,0-1.2,0-2.4,0-3.7.9-15.5,7-31.6,12-42.4,3.7-8.1,10.1-18.8,19-23.3,8.1-4.1,22-5.1,27.2,3.8,1.4,2.5,2.2,5.3,2.5,8.2,1.7,14-4.2,29.8-16.2,43.3-5.3,6.1-11.6,11.2-18.7,14.9-3,1.5-6.2,2.9-9.3,4.2-5.7,2.4-11.5,4.9-16.5,8.6-.1,0-.3.2-.4.3-5.6,4.2-10,9.9-14.3,15.3-.2.3-.7.4-1,.3-.1,0-.2-.1-.3-.2h0ZM68,228.4c0,.2.1.4.2.6.4-.5.8-1,1.2-1.6h-.2c-.4.4-.8.7-1.2,1h0ZM138.6,133.4c-5.8-5.4-16.7-4.1-23.4-.7-8.5,4.4-14.7,14.7-18.4,22.7-4.9,10.7-11,26.6-11.9,41.9,0,1.2,0,2.4,0,3.6.1,2.6.2,5.2-1,7.9-1.1,2.4-2.4,4.8-3.9,7,.7-.6,1.4-1.2,2.2-1.7.1-.1.3-.2.4-.3,5.2-3.8,11.1-6.3,16.8-8.8,3.1-1.3,6.2-2.7,9.2-4.2,7-3.7,13.2-8.7,18.4-14.6,11.8-13.2,17.6-28.7,15.9-42.3-.2-2.7-1-5.3-2.3-7.7-.5-.9-1.2-1.8-2-2.6h0Z"/>
  <path class="cls-3" d="M80.1,216.2l-.9-1c4.7-4.7,8.4-10.4,11.9-16,5.7-9.1,11.7-18.5,15.6-28.7.4-1,.8-2.1,1.1-3.1.8-2.2,1.6-4.4,2.6-6.5,1.3-2.7,2.8-5.3,4.5-7.7,6.2-8.9,14.3-16.3,23.7-21.6l.7,1.2c-9.3,5.3-17.2,12.5-23.3,21.2-1.7,2.4-3.2,4.9-4.4,7.5-1,2.1-1.8,4.3-2.5,6.4-.4,1-.7,2.1-1.1,3.1-3.9,10.3-9.9,19.8-15.7,29-3.5,5.6-7.2,11.4-12.1,16.2Z"/>
  <path class="cls-3" d="M113.9,155.6c-.1,0-.2-.2-.2-.3-1.7-7.5-1.9-15.4-.5-23l1.3.2c-1.3,7.2-1.2,14.7.3,21.8,9.9-1.2,19.7-3.1,29.2-5.8l.4,1.3c-9.9,2.7-19.9,4.7-30,5.9-.2,0-.4,0-.5-.2Z"/>
  <path class="cls-3" d="M107.1,170.5c-.3-.2-.5-.5-.7-.8-5-7.5-7.1-14-7.1-21.6h1.3c0,7.3,2.1,13.6,6.9,20.9.2.3.4.6.7.7.3,0,.6,0,.9,0,10.3-1.3,20.8-2.7,31.1-4.1l.2,1.3c-10.3,1.5-20.8,2.8-31.2,4.1-.5.1-1.1,0-1.6-.1-.2-.1-.4-.2-.6-.4h0Z"/>
  <path class="cls-3" d="M97.8,189.2c0,0-.1-.2-.2-.3-2.6-7.5-4.9-15.1-6.8-22.8l1.3-.3c1.9,7.5,4.1,15,6.6,22.2,9.9.4,19.7-.6,29.3-3l.3,1.3c-9.9,2.5-20,3.5-30.2,3-.2,0-.3,0-.4-.2h0Z"/>
  <g class="cls-6">
    <g>
      <path class="cls-5" d="M133.6,33.9c-.8-3.2-.6-6.6.7-9.7,1.6-3.8,4.6-6.8,7.3-9.2,3.3-2.9,8.7-6.5,15.6-6.9,7-.4,9.6,2.9,13.1,7.4l.6.7c2.1,2.7,4.5,5.3,6.8,7.8,2.9,3,5.6,6.2,8.1,9.5,2.8,4.1,5.4,8.4,7.7,12.8,3.1,5.7,6.3,11.5,10.6,16.3.2.2.2.5,0,.7,0,0-.2.1-.2.1l-10.1,1.5c-2,.4-4,.5-6,.4-2.3-.3-4.5-1-6.5-1.9-14.1-5.6-28.8-11.3-40.7-21.3-.4-.3-.8-.7-1.3-1-1.6-1.1-3-2.5-4.2-4.1-.7-1-1.1-2-1.4-3.1M202.8,62.7c-4.1-4.8-7.2-10.4-10.1-15.9-2.3-4.4-4.8-8.6-7.6-12.7-2.5-3.3-5.2-6.4-8-9.4-2.3-2.5-4.7-5.1-6.9-7.9l-.6-.7c-3.5-4.5-5.8-7.4-12.3-7.1-6.6.4-11.8,3.9-15,6.7-2.6,2.3-5.5,5.2-7.1,8.9-1.4,3.3-1.7,8.5.7,11.9,1.1,1.5,2.5,2.8,4,3.9.4.3.9.7,1.3,1,11.8,9.9,26.4,15.6,40.5,21.1,2,.9,4.1,1.5,6.3,1.8,1.9.1,3.9,0,5.8-.4l9.2-1.3Z"/>
      <path class="cls-5" d="M133.5,33.5s0,0,0-.1l.9-.2c.2.9.6,1,1.6,1.5,1,.4,2.1.5,3.2.4,1.9,0,3.8-.3,5.6-.9.2,0,.4-.1.6-.2,3.1-1,6-2.4,8.7-4.2,2.1-1.6,4.1-3.3,5.8-5.3,3.6-4,7-8.3,5.2-12.7-.3-.8-.9-1.4-1.6-1.8l.4-.9c1,.5,1.7,1.3,2.1,2.3,2.3,5.4-2.5,10.6-5.3,13.7-1.8,2-3.8,3.8-6,5.4-2.7,1.9-5.7,3.4-8.9,4.3-.2,0-.4.1-.6.2-1.9.6-3.8.9-5.8.9-1.2,0-2.4,0-3.5-.5-1-.2-1.9-1-2.2-2"/>
      <path class="cls-5" d="M134.8,30.9c-.2-.7-.2-1.4-.1-2.1.2-1.2.7-2.4,1.4-3.4,4.3-7.3,11.4-12.6,19.6-14.8,1.1-.3,2.3-.5,3.5-.4,1.4,0,2.7.8,3.6,1.9.9,1.3,1.2,2.9.8,4.4-.9,3.7-4,6-6.5,7.9-4.4,3.4-9,6.8-14.4,8.7-1.1.4-2.3.7-3.5.7-1.3,0-2.5-.5-3.4-1.4-.4-.4-.7-1-.8-1.6M162.5,13.9c-.1-.4-.3-.9-.6-1.2-.7-.9-1.7-1.5-2.9-1.5-1.1,0-2.1.1-3.2.4-8,2.1-14.8,7.2-19,14.3-.6.9-1,2-1.3,3.1-.2,1,0,2.1.7,2.9.7.7,1.7,1.1,2.7,1,1.1,0,2.1-.3,3.1-.6,5.3-1.8,9.8-5.3,14.2-8.6,2.9-2.2,5.4-4.3,6.2-7.4.2-.8.2-1.6,0-2.4"/>
      <path class="cls-5" d="M168.6,27.4c1.1-.8,2.1-1.7,2.8-2.8.4-.5.7-1,1-1.5.5-.8,1-1.6,1.7-2.3l.7.6c-.6.7-1.1,1.4-1.6,2.2-.3.5-.7,1.1-1,1.6-.9,1.2-1.9,2.2-3.1,3l-.5-.8Z"/>
      <path class="cls-5" d="M179.8,39.5c2.5-.9,4.6-2.7,5.8-5l.9.4c-1.3,2.6-3.6,4.5-6.3,5.5l-.3-.9Z"/>
      <path class="cls-5" d="M163.4,38.4c.7-.3,1.5-.5,2.2-.8,2-.9,3.7-2.3,5-4.1l.8.6c-1.4,1.9-3.3,3.4-5.4,4.4-.7.3-1.5.6-2.2.9l-.3-.9Z"/>
      <path class="cls-5" d="M142.5,43.6v-1c3.3-.2,6.5-1.2,9.4-3l.5.8c-3,1.8-6.4,2.9-9.8,3.1"/>
      <path class="cls-5" d="M158.3,52.8c1.2-.8,2.4-1.6,3.6-2.3,2.2-1.1,4.1-2.5,5.8-4.3l.7.6c-1.8,1.8-3.8,3.3-6,4.5-1.2.7-2.4,1.4-3.6,2.2l-.6-.8Z"/>
      <path class="cls-5" d="M175.3,52.3c2.7-1,5.2-2.5,7.3-4.4.5-.3.8-.8,1-1.4l.9.2c-.2.8-.7,1.5-1.3,2-2.2,2-4.8,3.5-7.6,4.6l-.3-.9Z"/>
      <path class="cls-5" d="M189.6,52.6c.7-.3,1.5-.6,2.2-.9.5-.2,1.1-.5,1.6-.9.5-.4.9-.8,1.2-1.3l.8.6c-.4.6-.9,1.1-1.4,1.5-.5.4-1.1.7-1.7,1-.7.3-1.5.7-2.2.9l-.3-.9Z"/>
      <path class="cls-5" d="M179.7,61.9c1.4-.5,2.8-1.2,3.9-2.3l.6.7c-1.2,1.1-2.7,1.9-4.2,2.4l-.3-.9Z"/>
    </g>
  </g>
</svg>