<svg xmlns="http://www.w3.org/2000/svg" xmlns:xlink="http://www.w3.org/1999/xlink" width="365.115" height="328.026" viewBox="0 0 365.115 328.026">
  <defs>
    <clipPath id="clip-path">
      <rect id="Rectángulo_3" data-name="Rectángulo 3" width="295" height="247.571" fill="none"/>
    </clipPath>
    <clipPath id="clip-path-2">
      <rect id="Rectángulo_50" data-name="Rectángulo 50" width="79.817" height="40.595" fill="#fa9522" stroke="#fa9522" stroke-width="1"/>
    </clipPath>
  </defs>
  <g id="tb-mission_right" data-name="tb-mission right" transform="translate(-1457.397 -2986.367)">
    <g id="Grupo_130" data-name="Grupo 130" transform="translate(1527.512 3066.822)">
      <g id="Grupo_85" data-name="Grupo 85" transform="translate(0 0)" clip-path="url(#clip-path)">
        <path id="Trazado_48" data-name="Trazado 48" d="M135.989,13.168c21.729-9.6,45.7-15.086,69.322-12.55s46.8,13.7,61.117,32.652c11.462,15.175,16.629,34.118,20.32,52.772A434.827,434.827,0,0,1,293.936,200.7c-1.072,15.286-3.995,32.367-16.476,41.257-8.018,5.711-18.706,6.752-28.3,4.521s-18.235-7.42-26.129-13.3c-23.264-17.345-41.059-40.946-57.059-65.156-7.85-11.878-15.668-24.32-27.38-32.412-8.516-5.883-18.567-9.079-28.541-11.844a446.5,446.5,0,0,0-53.9-11.418C38.2,109.7,18.027,107.02,6.97,92.638-3.1,79.543-1.649,60.007,7.407,46.2s24.3-22.522,40.064-27.454A120.24,120.24,0,0,1,80.549,13.3c13.622-.313,27.243,1.693,40.851,1.009a103.709,103.709,0,0,0,20.829-3.191" transform="translate(0 0)" fill="#6ca63b"/>
      </g>
    </g>
    <g id="HEALTHY_SCOOPS_-_ELEMENTOS_GRÁFICOS-23" data-name="HEALTHY SCOOPS - ELEMENTOS GRÁFICOS-23" transform="translate(1379.657 2959.806) rotate(30)">
      <g id="Grupo_112" data-name="Grupo 112" transform="translate(138.179 39.996)">
        <g id="Grupo_103" data-name="Grupo 103" transform="translate(21.774 0)">
          <path id="Trazado_675" data-name="Trazado 675" d="M471.42,43.418v10.7a3.419,3.419,0,1,0,6.837,0v-10.7a3.419,3.419,0,1,0-6.837,0Z" transform="translate(-471.42 -39.996)" fill="#ed6e16"/>
        </g>
        <g id="Grupo_104" data-name="Grupo 104" transform="translate(33.356 11.044)">
          <path id="Trazado_676" data-name="Trazado 676" d="M648.681,212.445q.359,4.295.717,8.59a3.66,3.66,0,0,0,1,2.417,3.418,3.418,0,0,0,4.834,0,3.355,3.355,0,0,0,1-2.417q-.359-4.295-.717-8.59a3.66,3.66,0,0,0-1-2.417,3.418,3.418,0,0,0-4.834,0,3.355,3.355,0,0,0-1,2.417Z" transform="translate(-648.674 -209.025)" fill="#ed6e16"/>
        </g>
        <g id="Grupo_105" data-name="Grupo 105" transform="translate(23.557 25.684)">
          <path id="Trazado_677" data-name="Trazado 677" d="M498.71,436.5v7.847a3.528,3.528,0,0,0,1,2.417,3.419,3.419,0,0,0,5.836-2.418v-7.847a3.528,3.528,0,0,0-1-2.417,3.419,3.419,0,0,0-5.836,2.418Z" transform="translate(-498.71 -433.074)" fill="#ed6e16"/>
        </g>
        <g id="Grupo_106" data-name="Grupo 106" transform="translate(34.973 39.239)">
          <path id="Trazado_678" data-name="Trazado 678" d="M673.41,643.938V655.71a3.419,3.419,0,0,0,6.837,0V643.938a3.419,3.419,0,1,0-6.837,0Z" transform="translate(-673.41 -640.516)" fill="#ed6e16"/>
        </g>
        <g id="Grupo_107" data-name="Grupo 107" transform="translate(10.302 14.272)">
          <path id="Trazado_679" data-name="Trazado 679" d="M295.925,261.835a48.277,48.277,0,0,0,.44,9.826,3.408,3.408,0,0,0,1.571,2.043,3.419,3.419,0,0,0,4.677-1.226q.172-.409.344-.817a3.446,3.446,0,0,0,0-1.818c-.008-.058-.016-.116-.024-.174q.061.455.122.909a44,44,0,0,1-.294-8.743,3.418,3.418,0,0,0-3.418-3.418,3.5,3.5,0,0,0-3.419,3.418Z" transform="translate(-295.838 -258.415)" fill="#ed6e16"/>
        </g>
        <g id="Grupo_108" data-name="Grupo 108" transform="translate(10.552 42.435)">
          <path id="Trazado_680" data-name="Trazado 680" d="M299.675,692.854q.438,6.428.876,12.855a3.419,3.419,0,0,0,6.837,0q-.438-6.428-.876-12.855a3.419,3.419,0,1,0-6.837,0Z" transform="translate(-299.668 -689.432)" fill="#ed6e16"/>
        </g>
        <g id="Grupo_109" data-name="Grupo 109" transform="translate(23.872 52.09)">
          <path id="Trazado_681" data-name="Trazado 681" d="M504.379,839.69a19.885,19.885,0,0,0-.8,7.333,3.661,3.661,0,0,0,1,2.417,3.418,3.418,0,0,0,4.834,0,3.355,3.355,0,0,0,1-2.417,17.468,17.468,0,0,1,.085-3.722q-.061.455-.122.909a17.67,17.67,0,0,1,.588-2.7,3.419,3.419,0,0,0-2.388-4.2,3.461,3.461,0,0,0-2.634.344,3.642,3.642,0,0,0-1.57,2.043Z" transform="translate(-503.519 -837.192)" fill="#ed6e16"/>
        </g>
        <g id="Grupo_110" data-name="Grupo 110" transform="translate(45.674 25.327)">
          <path id="Trazado_682" data-name="Trazado 682" d="M837.19,431.028v8.918a3.419,3.419,0,0,0,6.837,0v-8.918a3.419,3.419,0,1,0-6.837,0Z" transform="translate(-837.19 -427.606)" fill="#ed6e16"/>
        </g>
        <g id="Grupo_111" data-name="Grupo 111" transform="translate(0 29.619)">
          <path id="Trazado_683" data-name="Trazado 683" d="M139.378,495.789a20.947,20.947,0,0,0-1.2,6.619,3.418,3.418,0,0,0,3.418,3.418,3.456,3.456,0,0,0,2.417-1,3.618,3.618,0,0,0,1-2.417,18.469,18.469,0,0,1,.157-2.009q-.061.455-.122.909a18.134,18.134,0,0,1,.918-3.7,2.587,2.587,0,0,0,.061-1.363,2.548,2.548,0,0,0-.406-1.271,3.419,3.419,0,0,0-4.677-1.226l-.692.534a3.42,3.42,0,0,0-.878,1.508Z" transform="translate(-138.179 -493.292)" fill="#ed6e16"/>
        </g>
      </g>
    </g>
    <g id="HEALTHY_SCOOPS_-_ELEMENTOS_GRÁFICOS-13" data-name="HEALTHY SCOOPS - ELEMENTOS GRÁFICOS-13" transform="translate(1335.257 3073.439)">
      <g id="Grupo_120" data-name="Grupo 120" transform="translate(188.743 41.395)">
        <g id="Grupo_113" data-name="Grupo 113" transform="translate(14.166 37.13)">
          <rect id="Rectángulo_27" data-name="Rectángulo 27" width="0.268" height="1.344" transform="matrix(0.68, -0.733, 0.733, 0.68, 0, 0.197)" fill="#32472b"/>
        </g>
        <g id="Grupo_119" data-name="Grupo 119" transform="translate(0)">
          <g id="Grupo_114" data-name="Grupo 114">
            <path id="Trazado_685" data-name="Trazado 685" d="M189.664,143.338a3.892,3.892,0,0,1-.918-2.207c.081-.624.8-1.121,1.886-1.806.211-.132.387-.24.469-.308a52.5,52.5,0,0,0,5.508-5.263,50.154,50.154,0,0,0,8.335-12.691h0c1.062-2.327.973-4.715.878-7.244-.045-1.2-.091-2.436-.015-3.7.931-15.471,7.048-31.572,12.017-42.355,3.747-8.13,10.077-18.776,18.959-23.317,8.08-4.132,22.029-5.113,27.2,3.8a21.207,21.207,0,0,1,2.459,8.212c1.745,14.013-4.154,29.814-16.185,43.349a64.833,64.833,0,0,1-18.746,14.943c-3.031,1.548-6.213,2.914-9.289,4.238-5.651,2.43-11.493,4.942-16.535,8.638-.144.1-.285.208-.423.312-5.608,4.225-10.025,9.86-14.3,15.309a.853.853,0,0,1-1.021.282A.993.993,0,0,1,189.664,143.338Zm.449-2a4.723,4.723,0,0,0,.2.566q.613-.782,1.233-1.567l-.2.127A9.313,9.313,0,0,0,190.113,141.337Zm70.671-94.969c-5.763-5.352-16.693-4.149-23.389-.725-8.539,4.366-14.691,14.745-18.35,22.682C214.124,79,208.066,94.936,207.15,110.2c-.073,1.2-.028,2.408.016,3.572.1,2.575.2,5.236-1,7.853h0a51.064,51.064,0,0,1-3.881,6.989q1.056-.9,2.17-1.746c.144-.11.292-.219.441-.327,5.162-3.784,11.076-6.326,16.8-8.786,3.057-1.313,6.217-2.673,9.209-4.2a63.511,63.511,0,0,0,18.352-14.639c11.772-13.243,17.551-28.658,15.854-42.289a19.946,19.946,0,0,0-2.287-7.7A11.018,11.018,0,0,0,260.784,46.368Z" transform="translate(-188.743 -41.395)" fill="#32472b"/>
          </g>
          <g id="Grupo_115" data-name="Grupo 115" transform="translate(12.537 3.091)">
            <path id="Trazado_686" data-name="Trazado 686" d="M312.153,156.253l-.943-.958c4.743-4.664,8.367-10.4,11.872-15.957,5.747-9.107,11.69-18.524,15.582-28.742.391-1.027.762-2.062,1.132-3.1.776-2.166,1.579-4.407,2.566-6.543a51.171,51.171,0,0,1,4.508-7.723A72.694,72.694,0,0,1,370.61,71.59l.662,1.17A71.337,71.337,0,0,0,347.975,94a49.678,49.678,0,0,0-4.393,7.519c-.962,2.083-1.755,4.294-2.52,6.434-.374,1.043-.747,2.086-1.141,3.121-3.94,10.344-9.92,19.819-15.7,28.981C320.672,145.673,317.006,151.481,312.153,156.253Z" transform="translate(-311.21 -71.59)" fill="#32472b"/>
          </g>
          <g id="Grupo_116" data-name="Grupo 116" transform="translate(45.683 3.803)">
            <path id="Trazado_687" data-name="Trazado 687" d="M636.6,101.869a.664.664,0,0,1-.2-.344,57.539,57.539,0,0,1-.461-22.975l1.322.244a56.224,56.224,0,0,0,.319,21.843,200.91,200.91,0,0,0,29.241-5.767l.357,1.3a202.288,202.288,0,0,1-30.045,5.879A.665.665,0,0,1,636.6,101.869Z" transform="translate(-634.998 -78.55)" fill="#32472b"/>
          </g>
          <g id="Grupo_117" data-name="Grupo 117" transform="translate(32.682 19.57)">
            <path id="Trazado_688" data-name="Trazado 688" d="M515.776,254.988a4.41,4.41,0,0,1-.656-.822c-4.973-7.534-7.1-13.993-7.12-21.594l1.344,0c.016,7.318,2.079,13.556,6.9,20.856a1.913,1.913,0,0,0,.679.733,1.973,1.973,0,0,0,.948.017c10.331-1.294,20.806-2.685,31.13-4.137l.186,1.331c-10.332,1.453-20.812,2.846-31.15,4.141a3.1,3.1,0,0,1-1.644-.116A2.192,2.192,0,0,1,515.776,254.988Z" transform="translate(-508 -232.57)" fill="#32472b"/>
          </g>
          <g id="Grupo_118" data-name="Grupo 118" transform="translate(24.237 37.363)">
            <path id="Trazado_689" data-name="Trazado 689" d="M432.489,429.755a.666.666,0,0,1-.177-.27c-2.615-7.452-4.907-15.116-6.812-22.78l1.3-.324c1.859,7.476,4.088,14.953,6.625,22.23a103.147,103.147,0,0,0,29.319-2.979l.327,1.3a104.458,104.458,0,0,1-30.16,3A.66.66,0,0,1,432.489,429.755Z" transform="translate(-425.5 -406.38)" fill="#32472b"/>
          </g>
        </g>
      </g>
    </g>
    <g id="Grupo_217" data-name="Grupo 217" transform="matrix(0.799, 0.602, -0.602, 0.799, 1609.279, 2986.367)">
      <g id="Grupo_200" data-name="Grupo 200" transform="translate(0 0)" clip-path="url(#clip-path-2)">
        <path id="Trazado_838" data-name="Trazado 838" d="M5.8,38.073A15.243,15.243,0,0,1,.514,29.946c-.981-4.009-.383-8.195.334-11.758C1.717,13.852,3.859,7.745,9.125,3.261,14.472-1.288,18.493-.2,24.06,1.3l.9.24C28.29,2.436,31.75,3.068,35.1,3.68A109.652,109.652,0,0,1,47.294,6.4a116.139,116.139,0,0,1,13.837,5.561c5.864,2.657,11.927,5.4,18.3,6.67a.48.48,0,0,1,.246.808l-7.171,7.24a24.67,24.67,0,0,1-4.559,3.907,24.681,24.681,0,0,1-6.36,2.424C46.948,37.081,31.811,41.293,16.27,40.5c-.542-.028-1.09-.043-1.64-.057a19.72,19.72,0,0,1-5.78-.728A10.619,10.619,0,0,1,5.8,38.073M78.375,19.39c-6.161-1.356-11.993-4-17.641-6.554a115.354,115.354,0,0,0-13.72-5.518A108.739,108.739,0,0,0,34.924,4.626c-3.365-.617-6.845-1.253-10.216-2.155l-.9-.242C18.329.748,14.709-.229,9.748,3.993,4.69,8.3,2.628,14.19,1.789,18.375c-.695,3.461-1.278,7.515-.343,11.342.862,3.52,3.786,7.771,7.708,9.084a18.933,18.933,0,0,0,5.5.678c.559.015,1.114.031,1.665.058,15.385.788,30.446-3.4,45.013-7.454a23.94,23.94,0,0,0,6.118-2.318A24.007,24.007,0,0,0,71.826,26Z" transform="translate(0 0)" fill="#fa9522" stroke="#fa9522" stroke-width="1"/>
        <path id="Trazado_839" data-name="Trazado 839" d="M3.635,37.822c-.029-.021-.058-.044-.087-.067l.6-.748c.676.555,1.1.482,2.191.2a7.875,7.875,0,0,0,2.78-1.552A21.072,21.072,0,0,0,13.017,31.6c.118-.162.236-.327.353-.493a31.779,31.779,0,0,0,4.375-8.569A36.569,36.569,0,0,0,19.21,14.8c.5-5.37.643-10.819-3.539-13.261a3.361,3.361,0,0,0-2.389-.49L13.049.115a4.207,4.207,0,0,1,3.106.592c5.051,2.96,4.4,9.982,4.011,14.179a37.518,37.518,0,0,1-1.506,7.941,32.725,32.725,0,0,1-4.507,8.83c-.119.17-.24.338-.363.507A22,22,0,0,1,9.72,36.4a8.792,8.792,0,0,1-3.134,1.729,2.938,2.938,0,0,1-2.95-.311" transform="translate(1.881 0.011)" fill="#fa9522" stroke="#fa9522" stroke-width="1"/>
        <path id="Trazado_840" data-name="Trazado 840" d="M4.125,33.9a5.015,5.015,0,0,1-1.363-1.63A10.126,10.126,0,0,1,1.79,28.7,32.279,32.279,0,0,1,8.533,5.154a10.891,10.891,0,0,1,2.519-2.441,4.716,4.716,0,0,1,4-.6,5.288,5.288,0,0,1,3.255,3.068c1.457,3.483.4,7.223-.454,10.227-1.516,5.345-3.083,10.872-6.26,15.639a10.188,10.188,0,0,1-2.347,2.641,4.61,4.61,0,0,1-3.506.946A3.828,3.828,0,0,1,4.125,33.9M15.984,3.661a3.956,3.956,0,0,0-1.217-.63,3.724,3.724,0,0,0-3.2.491A10.038,10.038,0,0,0,9.285,5.753,31.3,31.3,0,0,0,2.743,28.586a9.229,9.229,0,0,0,.865,3.232,3.5,3.5,0,0,0,2.309,1.873,3.652,3.652,0,0,0,2.762-.776,9.343,9.343,0,0,0,2.116-2.4c3.094-4.641,4.64-10.1,6.135-15.368,1-3.513,1.722-6.66.493-9.595a4.6,4.6,0,0,0-1.438-1.891" transform="translate(0.835 1.012)" fill="#fa9522" stroke="#fa9522" stroke-width="1"/>
        <path id="Trazado_841" data-name="Trazado 841" d="M19.476,10.685a12,12,0,0,0,.6-3.925c-.009-.6-.063-1.209-.115-1.8a16.6,16.6,0,0,1-.083-2.86l.956.08a15.9,15.9,0,0,0,.083,2.7c.055.611.11,1.241.119,1.872a13.028,13.028,0,0,1-.653,4.24Z" transform="translate(10.327 1.112)" fill="#fa9522" stroke="#fa9522" stroke-width="1"/>
        <path id="Trazado_842" data-name="Trazado 842" d="M30.111,12.3a10.442,10.442,0,0,0,1.582-7.5l.947-.165A11.388,11.388,0,0,1,30.925,12.8Z" transform="translate(15.967 2.456)" fill="#fa9522" stroke="#fa9522" stroke-width="1"/>
        <path id="Trazado_843" data-name="Trazado 843" d="M21.145,18.381c.43-.644.863-1.293,1.226-1.957a12.746,12.746,0,0,0,1.553-6.317l.961-.017a13.7,13.7,0,0,1-1.671,6.793c-.384.7-.829,1.37-1.259,2.015Z" transform="translate(11.212 5.351)" fill="#fa9522" stroke="#fa9522" stroke-width="1"/>
        <path id="Trazado_844" data-name="Trazado 844" d="M12.444,29.483l-.624-.73A20.292,20.292,0,0,0,17.537,20.7l.886.369a21.181,21.181,0,0,1-5.979,8.416" transform="translate(6.268 10.976)" fill="#fa9522" stroke="#fa9522" stroke-width="1"/>
        <path id="Trazado_845" data-name="Trazado 845" d="M24.115,28.784a41.286,41.286,0,0,1,1.523-4.017,21.943,21.943,0,0,0,2.06-6.885l.958.067a23.03,23.03,0,0,1-2.132,7.188,40.348,40.348,0,0,0-1.489,3.924Z" transform="translate(12.787 9.483)" fill="#fa9522" stroke="#fa9522" stroke-width="1"/>
        <path id="Trazado_846" data-name="Trazado 846" d="M32.787,21.565a23.585,23.585,0,0,0,3.177-7.911,2.665,2.665,0,0,0-.04-1.718l.848-.451a3.464,3.464,0,0,1,.133,2.361A24.594,24.594,0,0,1,33.6,22.078Z" transform="translate(17.386 6.09)" fill="#fa9522" stroke="#fa9522" stroke-width="1"/>
        <path id="Trazado_847" data-name="Trazado 847" d="M40.348,14.543c.427-.653.826-1.331,1.186-2.017a9.475,9.475,0,0,0,.713-1.648,5.541,5.541,0,0,0,.225-1.749l.959-.031a6.483,6.483,0,0,1-.265,2.054,10.261,10.261,0,0,1-.783,1.823c-.373.71-.788,1.415-1.232,2.093Z" transform="translate(21.395 4.825)" fill="#fa9522" stroke="#fa9522" stroke-width="1"/>
        <path id="Trazado_848" data-name="Trazado 848" d="M38.83,22.832A10.8,10.8,0,0,0,40.6,18.677l.938.2a11.791,11.791,0,0,1-1.91,4.487Z" transform="translate(20.59 9.904)" fill="#fa9522" stroke="#fa9522" stroke-width="1"/>
      </g>
    </g>
  </g>
</svg>
