<svg xmlns="http://www.w3.org/2000/svg" xmlns:xlink="http://www.w3.org/1999/xlink" width="83.58" height="92.5" viewBox="0 0 83.58 92.5">
  <defs>
    <clipPath id="clip-path">
      <rect id="Rectángulo_54" data-name="Rectángulo 54" width="53.321" height="76.204" fill="none" stroke="#32472b" stroke-width="1"/>
    </clipPath>
  </defs>
  <g id="Grupo_215" data-name="Grupo 215" transform="matrix(0.875, 0.485, -0.485, 0.875, 1882.051, -6577.328)">
    <g id="Grupo_210" data-name="Grupo 210" transform="translate(1574.985 6647.187)">
      <g id="Grupo_209" data-name="Grupo 209" transform="translate(0)" clip-path="url(#clip-path)">
        <path id="Trazado_876" data-name="Trazado 876" d="M22.716,467.062a.4.4,0,0,1-.32-.166c-1.384-1.976-1.786-2.419-3.284-3.032a11.628,11.628,0,0,0-4.416-.539l-.583,0h-.024a12.7,12.7,0,0,1-7.3-1.738A13.968,13.968,0,0,1,.2,451.141,22.392,22.392,0,0,1,5.411,433.6a21.552,21.552,0,0,1,5.882-4.433,18.394,18.394,0,0,1,12.871-1.9,35.406,35.406,0,0,1,16.352,8.949c2.842,2.6,4.22,6.361,4.1,11.169-.12,4.708-1.035,9.34-6.871,11.346-1.6.55-3.035.944-4.424,1.325-1.2.331-2.446.673-3.815,1.118a10.478,10.478,0,0,0-4.13,2.241,8.245,8.245,0,0,0-1.626,2.248c-.19.34-.411.733-.7,1.209a.39.39,0,0,1-.321.19h-.016m-7.435-4.518a10.755,10.755,0,0,1,4.127.6,6.326,6.326,0,0,1,3.277,2.811c.143-.247.268-.469.381-.673a8.994,8.994,0,0,1,1.761-2.422,11.16,11.16,0,0,1,4.437-2.425c1.386-.452,2.638-.8,3.85-1.128,1.441-.4,2.8-.771,4.377-1.312,5.085-1.749,6.214-5.513,6.344-10.629.115-4.572-1.177-8.129-3.846-10.574a34.7,34.7,0,0,0-16.017-8.769,17.861,17.861,0,0,0-12.321,1.834,20.751,20.751,0,0,0-5.668,4.272,21.575,21.575,0,0,0-5.009,16.9,13.338,13.338,0,0,0,6.212,9.891,11.882,11.882,0,0,0,6.9,1.628h.026l.579,0c.195,0,.391,0,.588,0" transform="translate(4.466 -394.599)" fill="#32472b" stroke="#32472b" stroke-width="1"/>
        <path id="Trazado_877" data-name="Trazado 877" d="M197.3,42.625h-.012a.389.389,0,0,1-.377-.4,84.784,84.784,0,0,0-5.111-31.5.389.389,0,1,1,.731-.268,85.55,85.55,0,0,1,5.16,31.788.391.391,0,0,1-.39.378" transform="translate(-172.832 -9.432)" fill="#32472b" stroke="#32472b" stroke-width="1"/>
        <path id="Trazado_878" data-name="Trazado 878" d="M271.781,32.909a.13.13,0,0,1-.024,0,.388.388,0,0,1-.364-.413c.682-10.7,1.595-21.519,2.711-32.146A.4.4,0,0,1,274.533,0a.392.392,0,0,1,.347.429c-1.116,10.615-2.029,21.42-2.711,32.112a.39.39,0,0,1-.389.366" transform="translate(-246.445 0)" fill="#32472b" stroke="#32472b" stroke-width="1"/>
        <path id="Trazado_879" data-name="Trazado 879" d="M286.476,61.453a.379.379,0,0,1-.057,0,.388.388,0,0,1-.329-.441,91.52,91.52,0,0,1,5.065-19.48c1.4-3.668,3.049-7.269,4.64-10.749a.39.39,0,1,1,.709.323c-1.587,3.471-3.228,7.059-4.622,10.7a90.814,90.814,0,0,0-5.022,19.316.389.389,0,0,1-.385.333" transform="translate(-260.03 -28.244)" fill="#32472b" stroke="#32472b" stroke-width="1"/>
        <path id="Trazado_880" data-name="Trazado 880" d="M274.168,463.794h-.134a.39.39,0,0,1-.276-.666c-.694-9.945-.931-20.028-.7-29.973l.012-.492a43.583,43.583,0,0,0-.272-7.715.384.384,0,0,1-.172-.033.477.477,0,0,1-.245-.632.557.557,0,0,1,.7-.328.8.8,0,0,1,.454.67,43.232,43.232,0,0,1,.314,8.056l-.012.492c-.23,10.021.012,20.183.721,30.2a.386.386,0,0,1-.1.294.4.4,0,0,1-.285.123" transform="translate(-247.319 -391.931)" fill="#32472b" stroke="#32472b" stroke-width="1"/>
        <path id="Trazado_881" data-name="Trazado 881" d="M330.467,468.963a.39.39,0,0,1-.277-.664,19.01,19.01,0,0,0,5.149-18.138c-2.329-9.15-7.636-12.1-9.9-13.354a7.064,7.064,0,0,1-.851-.515.389.389,0,1,1,.481-.612,7.453,7.453,0,0,0,.748.444c2.152,1.2,7.867,4.37,10.28,13.845a19.78,19.78,0,0,1-5.35,18.878.386.386,0,0,1-.278.116" transform="translate(-295.486 -402.723)" fill="#32472b" stroke="#32472b" stroke-width="1"/>
        <path id="Trazado_882" data-name="Trazado 882" d="M85.382,467.56a.4.4,0,0,1-.112-.017c-6.9-2.093-9.448-10.038-9.479-14.865-.046-7.234.706-12.63,11.164-21.371a.389.389,0,0,1,.5.6c-10.195,8.524-10.928,13.757-10.884,20.768.029,4.422,2.476,12.168,8.925,14.125a.39.39,0,0,1-.112.763" transform="translate(-65.603 -398.673)" fill="#32472b" stroke="#32472b" stroke-width="1"/>
      </g>
    </g>
  </g>
</svg>
