<svg height="61.205" viewBox="0 0 58.749 61.205" width="58.749" xmlns="http://www.w3.org/2000/svg"><g fill="#32472b"><path d="m100.3 84.757a20.657 20.657 0 0 0 -6.929-13.176c-4.068-3.722-9.091-6.067-14.1-8.236a2.031 2.031 0 0 0 -3 1.722c-.392 3.432 1.532 6.982 2.945 10a33.745 33.745 0 0 0 5.4 8.427 20.332 20.332 0 0 0 7.484 5.286 8.487 8.487 0 0 0 5.062.722 4.168 4.168 0 0 0 3.21-3.786 2.008 2.008 0 0 0 -1.994-1.994 2.038 2.038 0 0 0 -1.994 1.994c.032-.315-.208-.036-.658-.051a5.829 5.829 0 0 1 -1.531-.356 13.288 13.288 0 0 1 -2.938-1.384 18.493 18.493 0 0 1 -4.95-4.607 35.883 35.883 0 0 1 -3.867-6.748c-1.05-2.3-2.473-4.91-2.178-7.5l-3 1.722c4.47 1.937 9.106 3.966 12.819 7.192 3.167 2.751 5.827 6.493 6.232 10.776a2.048 2.048 0 0 0 1.994 1.994 2.009 2.009 0 0 0 1.995-1.995z" transform="translate(-76.225 -63.12)"/><path d="m500.333 147.7a20.657 20.657 0 0 0 -6.928-13.176c-4.068-3.722-9.091-6.067-14.1-8.236a2.031 2.031 0 0 0 -3 1.722c-.392 3.432 1.532 6.982 2.945 10a33.744 33.744 0 0 0 5.4 8.427 20.332 20.332 0 0 0 7.484 5.286 8.487 8.487 0 0 0 5.062.722 4.167 4.167 0 0 0 3.21-3.786 2.008 2.008 0 0 0 -1.994-1.994 2.038 2.038 0 0 0 -1.994 1.994c.032-.315-.208-.036-.658-.051a5.83 5.83 0 0 1 -1.531-.356 13.287 13.287 0 0 1 -2.938-1.384 18.493 18.493 0 0 1 -4.95-4.607 35.884 35.884 0 0 1 -3.867-6.748c-1.05-2.3-2.473-4.91-2.178-7.5l-3 1.722c4.47 1.937 9.106 3.966 12.819 7.192 3.167 2.751 5.827 6.493 6.232 10.776a2.048 2.048 0 0 0 1.994 1.994 2.01 2.01 0 0 0 1.995-1.995z" transform="translate(-450.663 -122.033)"/><path d="m263.953 547.037a20.657 20.657 0 0 0 -6.929-13.176c-4.068-3.722-9.091-6.067-14.1-8.236a2.031 2.031 0 0 0 -3 1.722c-.392 3.432 1.532 6.982 2.945 10a33.745 33.745 0 0 0 5.4 8.427 20.333 20.333 0 0 0 7.484 5.286 8.487 8.487 0 0 0 5.062.722 4.167 4.167 0 0 0 3.21-3.786 2.008 2.008 0 0 0 -1.995-1.996 2.038 2.038 0 0 0 -1.994 2c.032-.315-.208-.036-.658-.051a5.832 5.832 0 0 1 -1.531-.356 13.286 13.286 0 0 1 -2.938-1.384 18.493 18.493 0 0 1 -4.95-4.607 35.882 35.882 0 0 1 -3.867-6.748c-1.05-2.3-2.473-4.91-2.178-7.5l-3 1.722c4.47 1.937 9.106 3.966 12.819 7.192 3.167 2.751 5.827 6.493 6.232 10.776a2.048 2.048 0 0 0 1.994 1.994 2.009 2.009 0 0 0 1.995-1.994z" transform="translate(-229.405 -495.826)"/><path d="m641.013 626.707a20.658 20.658 0 0 0 -6.929-13.176c-4.068-3.722-9.091-6.067-14.1-8.236a2.031 2.031 0 0 0 -3 1.722c-.392 3.432 1.532 6.982 2.945 10a33.745 33.745 0 0 0 5.4 8.427 20.332 20.332 0 0 0 7.484 5.286 8.487 8.487 0 0 0 5.062.722 4.168 4.168 0 0 0 3.21-3.786 2.008 2.008 0 0 0 -1.994-1.994 2.038 2.038 0 0 0 -1.994 1.994c.032-.315-.208-.036-.658-.051a5.83 5.83 0 0 1 -1.531-.356 13.286 13.286 0 0 1 -2.938-1.384 18.494 18.494 0 0 1 -4.95-4.607 35.886 35.886 0 0 1 -3.867-6.748c-1.05-2.3-2.473-4.91-2.178-7.5l-3 1.722c4.47 1.937 9.106 3.966 12.819 7.192 3.167 2.751 5.828 6.493 6.232 10.776a2.049 2.049 0 0 0 1.994 1.994 2.009 2.009 0 0 0 1.995-1.994z" transform="translate(-582.343 -570.399)"/></g></svg>