<svg height="71.337" viewBox="0 0 385.001 71.337" width="385.001" xmlns="http://www.w3.org/2000/svg"><g fill="#32472b"><path d="m75.7 111.48a2.1 2.1 0 0 1 -2.8 3.052 6.987 6.987 0 0 1 -2.207-1.955c-1.023-1.193-2.022-2.393-3.045-3.589-.284-.336-1.058-.513-1.031-.051a15.94 15.94 0 0 1 -.245 4.387 4.606 4.606 0 0 1 -2 3.195 3.742 3.742 0 0 1 -3.364-.328 30.711 30.711 0 0 1 -2.851-2c-.237-.186-.62-.336-.8-.075-.067.067-.067.209-.075.312a16.475 16.475 0 0 0 .636 5.311 9.188 9.188 0 0 1 .573 3.1 2.234 2.234 0 0 1 -1.947 2.172c-1.485.043-2.164-1.8-2.417-3.289-.438-2.59-.9-5.208-1.335-7.8a10.307 10.307 0 0 1 -.166-3.866 3.429 3.429 0 0 1 2.476-2.717c1.382-.269 2.7.636 3.7 1.635a9.54 9.54 0 0 0 3.248 2.626c.261-2.1.569-4.178.829-6.267.237-1.737.774-3.834 2.492-4.237a3.017 3.017 0 0 1 2.65.932 13.4 13.4 0 0 1 1.694 2.357 22.418 22.418 0 0 0 4.134 5.019 9.585 9.585 0 0 1 1.851 2.076z" transform="translate(-52.51 -82.166)"/><path d="m142.235 89.277a2.545 2.545 0 0 1 -.217 2.492 1.806 1.806 0 0 1 -2.661.336c-1.627-1.544-2.752-1.157-3.281-1.007-1.485.478-1.963.671-3.408 1.173a2.529 2.529 0 0 0 -1.193.663c-.9 1.05.284 2.812-.438 4-.588 1.007-2.275.806-3.037-.091a5.279 5.279 0 0 1 -.865-3.388 53.976 53.976 0 0 1 .438-8.423 11 11 0 0 1 1.046-3.818 4.185 4.185 0 0 1 3.064-2.274c1.939-.178 3.558 1.433 4.881 2.918 1.157 1.315 2.357 2.65 3.522 3.961a20.675 20.675 0 0 1 2.149 3.458zm-7.819-3.589c-.738-1.106-1.919-2.381-2.373-2.192-.671.3-.79 4.087-.269 4.588.379.351 2.192-.395 2.634-.612 1.106-.45.142-1.572.008-1.784z" transform="translate(-97.657 -68.781)"/><path d="m189.118 68.318a6.415 6.415 0 0 1 .059 6.03 13.113 13.113 0 0 1 -4.2 4.632 27.247 27.247 0 0 1 -5.5 3.037 3.05 3.05 0 0 1 -2.717.142 2.665 2.665 0 0 1 -.948-2.373 8.651 8.651 0 0 0 -.067-2.634c-.813-2.8-1.627-5.611-2.409-8.423a2.679 2.679 0 0 1 -.186-1.307c.178-1.374 1.888-1.888 3.3-2 1.252-.111 2.551-.2 3.818-.225a15.679 15.679 0 0 1 4.9.371 6.5 6.5 0 0 1 3.95 2.75zm-3.254 2.543c-.446-1.872-4.723-1.9-7.2-1.5a.622.622 0 0 0 -.577.928c.529 1.955 1.141 3.866 1.753 5.773.111.292.344.648.628.529 2.432-1.142 5.791-3.991 5.396-5.73z" transform="translate(-125.499 -60.454)"/><path d="m248.336 69.32a2.171 2.171 0 0 1 -.932 2.006c-1.291 1.039-4.462 1.35-6.638 1.066-2.148-.292-4.371-1.426-5.244-3.424-.77-1.722-.813-8.968-.529-11.08.261-2.089 1.52-4.312 3.625-4.612a6.161 6.161 0 0 1 1.8.083c1.224.186 2.456.344 3.676.529 1.015.126 2.18.379 2.626 1.283a2.131 2.131 0 0 1 -1.185 2.717 4.618 4.618 0 0 1 -3.214-.016 5.219 5.219 0 0 0 -2.448-.158c-.426.158-.679.9-.656 1.812.016.888.059 1.374.7 1.426a16.223 16.223 0 0 1 3.672.217 1.912 1.912 0 0 1 -.1 3.728 6.25 6.25 0 0 1 -2.132.233c-.58-.016-1.8-.233-1.9-.075a1.8 1.8 0 0 0 .261 2.164c1.4 1.157 4.506.387 6.117.193 2.023-.197 2.418 1.051 2.501 1.908z" transform="translate(-162.837 -53.235)"/><path d="m336.824 63.525a2.276 2.276 0 0 1 -2.314.948 6.957 6.957 0 0 1 -2.456-1.015c-1.583-.94-3.088-1.789-4.671-2.729-.679-.411-1.106.454-1.418 1.358a19.729 19.729 0 0 0 -1.09 4.356c.142.64.478.8 1.082 1.023 1.374.537 3.005 1.046 3.716 1.844a2.116 2.116 0 0 1 -1.106 3.341 3.792 3.792 0 0 1 -2.267-.521c-.857-.336-3.12-1.106-3.372-.545-.438.924-1.023 2.954-1.441 3.791a2.455 2.455 0 0 1 -2.729 1.066 1.933 1.933 0 0 1 -1.35-2.365c1.651-4.656 3.329-9.3 5-13.915a2.462 2.462 0 0 0 .1-2.124c-.64-1.031.379-2.46 1.583-2.669a5.664 5.664 0 0 1 3.475.849c2.18 1.066 4.387 2.148 6.559 3.246a6.253 6.253 0 0 1 2.282 1.516 2.257 2.257 0 0 1 .417 2.545z" transform="translate(-212.75 -54.488)"/><path d="m390.64 83.8a4.6 4.6 0 0 1 -.695 3.976 8.743 8.743 0 0 1 -7.775 4.051c-.312-.024-.687-.008-.537.284.178.3 2.685 1.856 3.3 2.559a2.439 2.439 0 0 1 .426 2.575 2.487 2.487 0 0 1 -2.776.94 7.178 7.178 0 0 1 -2.634-1.67c-1.039-.873-2.057-1.777-3.127-2.658a.524.524 0 0 0 -.312-.193c-.237.008-.379.276-.47.505a4.577 4.577 0 0 1 -1.812 2.409 2.286 2.286 0 0 1 -2.827-.269c-.888-1.082-.284-2.685.395-3.893 2.073-3.886 4.154-7.8 6.231-11.692.261-.486.529-1.074 1.082-1.216 1.441-.312 4.8.426 6.444 1.015 1.971.757 4.463 1.777 5.087 3.277zm-4.506 2.061a.535.535 0 0 0 -.268-.336 9.888 9.888 0 0 0 -3.617-1.5 1.475 1.475 0 0 0 -.865-.051c-.513.126-.821.663-1.074 1.118a30.742 30.742 0 0 0 -1.382 2.977 12 12 0 0 0 3.692-.344c1.216-.4 2.567-.656 3.38-1.619a.487.487 0 0 0 .134-.246z" transform="translate(-245.206 -69.088)"/><path d="m446.2 115.6c-.4 2.476-2.669 4.32-5.082 5.027-3.716 1.039-8.245-.446-9.872-3.925a6.992 6.992 0 0 1 -.379-4.723 10.622 10.622 0 0 1 1.947-3.542 11.431 11.431 0 0 1 2.871-2.879 5.339 5.339 0 0 1 3.9-.857c2.3.494 3.724 2.729 4.865 4.774 1.05 1.894 2.106 3.971 1.75 6.125zm-4.312-.142a13.625 13.625 0 0 0 -2.871-6.31 1.225 1.225 0 0 0 -.336-.292.876.876 0 0 0 -.707.217 6.332 6.332 0 0 0 -2.792 3.558 3.26 3.26 0 0 0 1.844 3.811 5.3 5.3 0 0 0 4.862-.982z" transform="translate(-281.315 -84.325)"/><path d="m500.351 149.057a2.393 2.393 0 0 1 -2.057 1.655 2.421 2.421 0 0 1 -2.081-1.844 6.778 6.778 0 0 1 .083-2.954c.253-1.552.537-3.1.79-4.648.083-.434-.276-1.149-.612-.829a15.75 15.75 0 0 1 -3.538 2.634 4.6 4.6 0 0 1 -3.739.513 3.735 3.735 0 0 1 -1.911-2.8 29.323 29.323 0 0 1 -.292-3.475c-.008-.3-.142-.695-.454-.655-.1-.008-.2.083-.3.142a16.969 16.969 0 0 0 -3.672 3.9 9.032 9.032 0 0 1 -2.022 2.432 2.233 2.233 0 0 1 -2.918-.1c-.983-1.114 0-2.827.975-3.976 1.71-2 3.431-4.036 5.141-6.034a10.424 10.424 0 0 1 2.863-2.618 3.434 3.434 0 0 1 3.684.166c1.09.888 1.248 2.484 1.118 3.886a9.651 9.651 0 0 0 .059 4.186c1.785-1.149 3.574-2.255 5.358-3.4 1.485-.932 3.439-1.872 4.857-.806a3.012 3.012 0 0 1 .975 2.634 12.973 12.973 0 0 1 -.723 2.819 22.625 22.625 0 0 0 -1.2 6.4 9.023 9.023 0 0 1 -.384 2.772z" transform="translate(-309.51 -99.66)"/><path d="m591.568 171.971c-.656 1.248-1.224 2.737-.588 4.02a4.858 4.858 0 0 0 2.843 2.009c.715.261 1.986.253 2.61.865a2.278 2.278 0 0 1 .715 2.389 2.324 2.324 0 0 1 -2.255 1.283 14.079 14.079 0 0 1 -4.059-1.173 10.224 10.224 0 0 1 -2.164-1.224 6.321 6.321 0 0 1 -2.275-4.679 9.786 9.786 0 0 1 1.268-5.133 1.89 1.89 0 0 0 .284-.679 6.45 6.45 0 0 0 .091-.679 4.042 4.042 0 0 1 .9-1.88c.821-1.165 1.678-2.326 2.515-3.522a6.164 6.164 0 0 1 1.4-1.552 1.938 1.938 0 0 1 1.986-.186 2 2 0 0 1 .746 2.259 8.654 8.654 0 0 1 -1.366 2.8c-.419.486 2.03.932 2.677 1.114 1.469.395 2.44.217 3.052 1.24a2.354 2.354 0 0 1 -.679 3.179 4.092 4.092 0 0 1 -3.052-.075c-1.232-.367-2.432-.723-3.665-1.1-.431-.141-.782.337-.984.724z" transform="translate(-375.567 -118.83)"/><path d="m652.633 194.483c-.186 1.366-2.18 1.9-3.23 1.031a3.03 3.03 0 0 1 -.462-3.783.7.7 0 0 0 -.276-.857 2.3 2.3 0 0 0 -.983-.237c-1.477-.083-2.977-.2-4.482-.292a1.993 1.993 0 0 0 -1.141.134c-.924.486-.656 1.9-1.023 2.887a2.066 2.066 0 0 1 -3.909-.024 4.455 4.455 0 0 1 .032-2.231c.707-3.388 1.394-6.8 2.113-10.212a3.691 3.691 0 0 1 .569-1.576 2.056 2.056 0 0 1 2.365-.723 2.021 2.021 0 0 1 1.193 2.148c-.312 1.718-.62 3.4-.932 5.11a.476.476 0 0 0 .083.419.316.316 0 0 0 .237.043c1.662.083 3.337.142 4.991.225a2.161 2.161 0 0 0 1.149-.166 1.955 1.955 0 0 0 .77-1.319 20 20 0 0 1 .62-3.206 2.576 2.576 0 0 1 2.44-1.8 1.728 1.728 0 0 1 1.4 1.193 3.254 3.254 0 0 1 .035 1.461c-.529 3.921-1.058 7.831-1.559 11.775z" transform="translate(-406.193 -129.019)"/><path d="m709.825 201.3a2.138 2.138 0 0 1 -1.114 1.911c-1.386.908-4.565.916-6.7.426-2.113-.486-4.213-1.836-4.885-3.9-.6-1.785.043-8.991.529-11.064.454-2.045 1.923-4.142 4.036-4.229a5.65 5.65 0 0 1 1.789.253c1.2.3 2.4.569 3.605.873.991.225 2.132.58 2.492 1.52a2.133 2.133 0 0 1 -1.441 2.59 4.659 4.659 0 0 1 -3.195-.32 5.349 5.349 0 0 0 -2.417-.395c-.438.126-.762.837-.829 1.745-.067.888-.075 1.374.561 1.477.94.166 2.776.142 3.633.573a1.911 1.911 0 0 1 -.454 3.7 6.282 6.282 0 0 1 -2.14.024c-.573-.067-1.777-.4-1.88-.253a1.782 1.782 0 0 0 .059 2.172c1.283 1.291 4.43.813 6.057.774 2.025-.003 2.298 1.265 2.294 2.123z" transform="translate(-442.434 -132.627)"/><path d="m797.476 199.716c.237 1.358-1.493 2.476-2.768 1.963a3.02 3.02 0 0 1 -1.587-3.455c.083-.32-.2-.628-.529-.738a2.195 2.195 0 0 0 -1.007.075c-1.433.371-2.894.715-4.356 1.09a1.929 1.929 0 0 0 -1.042.478c-.738.746-.043 2.014-.1 3.064a2.063 2.063 0 0 1 -3.732 1.165 4.363 4.363 0 0 1 -.648-2.132c-.359-3.439-.746-6.9-1.114-10.369a3.839 3.839 0 0 1 .059-1.67 2.045 2.045 0 0 1 2.038-1.4 2.008 2.008 0 0 1 1.789 1.678c.225 1.722.446 3.424.679 5.149a.446.446 0 0 0 .2.371.291.291 0 0 0 .237-.032c1.611-.426 3.214-.881 4.825-1.307a2.315 2.315 0 0 0 1.046-.505 1.976 1.976 0 0 0 .328-1.493 19.578 19.578 0 0 1 -.395-3.246 2.575 2.575 0 0 1 1.777-2.456 1.718 1.718 0 0 1 1.694.7 3.337 3.337 0 0 1 .494 1.386c.694 3.886 1.381 7.775 2.112 11.684z" transform="translate(-493.053 -133.525)"/><path d="m852.509 189.285a2.186 2.186 0 0 1 -.387 2.188c-.983 1.335-3.969 2.456-6.148 2.729-2.156.276-4.6-.261-5.955-1.97-1.193-1.469-3.088-8.458-3.356-10.587-.284-2.081.367-4.557 2.326-5.386a6.073 6.073 0 0 1 1.769-.379c1.232-.134 2.46-.3 3.692-.434 1.015-.134 2.207-.193 2.871.569a2.123 2.123 0 0 1 -.454 2.93 4.63 4.63 0 0 1 -3.112.806 5.333 5.333 0 0 0 -2.409.478c-.367.269-.426 1.046-.17 1.931.245.849.411 1.315 1.047 1.185.932-.17 2.657-.829 3.609-.723a1.913 1.913 0 0 1 .857 3.633 6.279 6.279 0 0 1 -2 .774c-.569.126-1.812.237-1.856.411a1.784 1.784 0 0 0 .806 2.022c1.654.762 4.462-.774 5.974-1.382 1.897-.706 2.596.396 2.896 1.205z" transform="translate(-526.98 -127.137)"/><path d="m910.022 168.612a2.589 2.589 0 0 1 .043 2.507 1.819 1.819 0 0 1 -2.618.6c-1.777-1.374-2.859-.873-3.372-.663-1.426.628-1.888.865-3.274 1.508a2.552 2.552 0 0 0 -1.118.79c-.782 1.133.573 2.768-.024 4.02-.486 1.058-2.18 1.039-3.029.217a5.266 5.266 0 0 1 -1.216-3.274 55.283 55.283 0 0 1 -.427-8.423 11.263 11.263 0 0 1 .656-3.909 4.148 4.148 0 0 1 2.812-2.575c1.911-.379 3.684 1.05 5.149 2.393 1.291 1.193 2.626 2.393 3.909 3.582a20.037 20.037 0 0 1 2.509 3.227zm-8.154-2.764c-.841-1.023-2.148-2.172-2.575-1.939-.64.367-.371 4.146.2 4.588.411.312 2.132-.62 2.551-.881 1.064-.552-.01-1.567-.176-1.768z" transform="translate(-562.301 -117.449)"/><path d="m944.339 128.618a4.557 4.557 0 0 1 2.93 2.76 8.712 8.712 0 0 1 -.889 8.707c-.2.253-.387.573-.067.6.351.024 3.029-1.216 3.945-1.335a2.421 2.421 0 0 1 2.381 1.058 2.477 2.477 0 0 1 -.746 2.827 6.951 6.951 0 0 1 -2.835 1.275c-1.3.379-2.61.738-3.933 1.141a.516.516 0 0 0 -.336.166c-.126.193.024.462.166.663a4.6 4.6 0 0 1 1.007 2.835 2.277 2.277 0 0 1 -1.777 2.207c-1.386.15-2.389-1.24-3.029-2.468-2.1-3.866-4.213-7.751-6.31-11.617a2.031 2.031 0 0 1 -.427-1.568c.529-1.382 3-3.775 4.4-4.818 1.705-1.225 3.928-2.741 5.52-2.433zm-.762 4.893a.48.48 0 0 0 -.418.032 9.742 9.742 0 0 0 -3.246 2.192 1.513 1.513 0 0 0 -.521.695 2 2 0 0 0 .351 1.508 29.56 29.56 0 0 0 1.718 2.792 12.345 12.345 0 0 0 1.745-3.27c.328-1.24.865-2.5.505-3.708a.388.388 0 0 0 -.135-.241z" transform="translate(-586.141 -98.826)"/><path d="m986.432 111.425c.79 1.173 1.844 2.373 3.274 2.417a4.866 4.866 0 0 0 3.112-1.568c.569-.513 1.165-1.635 2-1.9a2.286 2.286 0 0 1 2.44.486 2.313 2.313 0 0 1 .075 2.594 13.778 13.778 0 0 1 -2.938 3.029 10.446 10.446 0 0 1 -2.1 1.343 6.345 6.345 0 0 1 -5.2-.193 9.7 9.7 0 0 1 -3.933-3.542 2.191 2.191 0 0 0 -.47-.569c-.158-.15-.359-.245-.553-.395a4.162 4.162 0 0 1 -1.248-1.67c-.64-1.283-1.26-2.582-1.931-3.878a6.336 6.336 0 0 1 -.707-1.978 1.959 1.959 0 0 1 .77-1.836 2.008 2.008 0 0 1 2.349.4 8.6 8.6 0 0 1 1.828 2.523c.237.6 1.785-1.35 2.239-1.844 1.05-1.114 1.35-2.053 2.535-2.1a2.338 2.338 0 0 1 2.484 2.089 4.062 4.062 0 0 1 -1.5 2.661c-.9.908-1.785 1.8-2.685 2.717-.338.318-.086.855.159 1.214z" transform="translate(-612.689 -83.193)"/></g></svg>