<svg xmlns="http://www.w3.org/2000/svg" width="54.741" height="61.422" viewBox="0 0 54.741 61.422">
  <g id="HEALTHY_SCOOPS_-_ELEMENTOS_GRÁFICOS-23" data-name="HEALTHY SCOOPS - ELEMENTOS GRÁFICOS-23" transform="translate(-77.74 -114.615) rotate(30)">
    <g id="Grupo_112" data-name="Grupo 112" transform="translate(138.179 39.996)">
      <g id="Grupo_103" data-name="Grupo 103" transform="translate(21.774 0)">
        <path id="Trazado_675" data-name="Trazado 675" d="M471.42,43.418v10.7a3.419,3.419,0,1,0,6.837,0v-10.7a3.419,3.419,0,1,0-6.837,0Z" transform="translate(-471.42 -39.996)" fill="#f7f6f2"/>
      </g>
      <g id="Grupo_104" data-name="Grupo 104" transform="translate(33.356 11.044)">
        <path id="Trazado_676" data-name="Trazado 676" d="M648.681,212.445q.359,4.295.717,8.59a3.66,3.66,0,0,0,1,2.417,3.418,3.418,0,0,0,4.834,0,3.355,3.355,0,0,0,1-2.417q-.359-4.295-.717-8.59a3.66,3.66,0,0,0-1-2.417,3.418,3.418,0,0,0-4.834,0,3.355,3.355,0,0,0-1,2.417Z" transform="translate(-648.674 -209.025)" fill="#f7f6f2"/>
      </g>
      <g id="Grupo_105" data-name="Grupo 105" transform="translate(23.557 25.684)">
        <path id="Trazado_677" data-name="Trazado 677" d="M498.71,436.5v7.847a3.528,3.528,0,0,0,1,2.417,3.419,3.419,0,0,0,5.836-2.418v-7.847a3.528,3.528,0,0,0-1-2.417,3.419,3.419,0,0,0-5.836,2.418Z" transform="translate(-498.71 -433.074)" fill="#f7f6f2"/>
      </g>
      <g id="Grupo_106" data-name="Grupo 106" transform="translate(34.973 39.239)">
        <path id="Trazado_678" data-name="Trazado 678" d="M673.41,643.938V655.71a3.419,3.419,0,0,0,6.837,0V643.938a3.419,3.419,0,1,0-6.837,0Z" transform="translate(-673.41 -640.516)" fill="#f7f6f2"/>
      </g>
      <g id="Grupo_107" data-name="Grupo 107" transform="translate(10.302 14.272)">
        <path id="Trazado_679" data-name="Trazado 679" d="M295.925,261.835a48.277,48.277,0,0,0,.44,9.826,3.408,3.408,0,0,0,1.571,2.043,3.419,3.419,0,0,0,4.677-1.226q.172-.409.344-.817a3.446,3.446,0,0,0,0-1.818c-.008-.058-.016-.116-.024-.174q.061.455.122.909a44,44,0,0,1-.294-8.743,3.418,3.418,0,0,0-3.418-3.418,3.5,3.5,0,0,0-3.419,3.418Z" transform="translate(-295.838 -258.415)" fill="#f7f6f2"/>
      </g>
      <g id="Grupo_108" data-name="Grupo 108" transform="translate(10.552 42.435)">
        <path id="Trazado_680" data-name="Trazado 680" d="M299.675,692.854q.438,6.428.876,12.855a3.419,3.419,0,0,0,6.837,0q-.438-6.428-.876-12.855a3.419,3.419,0,1,0-6.837,0Z" transform="translate(-299.668 -689.432)" fill="#f7f6f2"/>
      </g>
      <g id="Grupo_109" data-name="Grupo 109" transform="translate(23.872 52.09)">
        <path id="Trazado_681" data-name="Trazado 681" d="M504.379,839.69a19.885,19.885,0,0,0-.8,7.333,3.661,3.661,0,0,0,1,2.417,3.418,3.418,0,0,0,4.834,0,3.355,3.355,0,0,0,1-2.417,17.468,17.468,0,0,1,.085-3.722q-.061.455-.122.909a17.67,17.67,0,0,1,.588-2.7,3.419,3.419,0,0,0-2.388-4.2,3.461,3.461,0,0,0-2.634.344,3.642,3.642,0,0,0-1.57,2.043Z" transform="translate(-503.519 -837.192)" fill="#f7f6f2"/>
      </g>
      <g id="Grupo_110" data-name="Grupo 110" transform="translate(45.674 25.327)">
        <path id="Trazado_682" data-name="Trazado 682" d="M837.19,431.028v8.918a3.419,3.419,0,0,0,6.837,0v-8.918a3.419,3.419,0,1,0-6.837,0Z" transform="translate(-837.19 -427.606)" fill="#f7f6f2"/>
      </g>
      <g id="Grupo_111" data-name="Grupo 111" transform="translate(0 29.619)">
        <path id="Trazado_683" data-name="Trazado 683" d="M139.378,495.789a20.947,20.947,0,0,0-1.2,6.619,3.418,3.418,0,0,0,3.418,3.418,3.456,3.456,0,0,0,2.417-1,3.618,3.618,0,0,0,1-2.417,18.469,18.469,0,0,1,.157-2.009q-.061.455-.122.909a18.134,18.134,0,0,1,.918-3.7,2.587,2.587,0,0,0,.061-1.363,2.548,2.548,0,0,0-.406-1.271,3.419,3.419,0,0,0-4.677-1.226l-.692.534a3.42,3.42,0,0,0-.878,1.508Z" transform="translate(-138.179 -493.292)" fill="#f7f6f2"/>
      </g>
    </g>
  </g>
</svg>
