<svg height="99.875" viewBox="0 0 99.875 99.875" width="99.875" xmlns="http://www.w3.org/2000/svg" xmlns:xlink="http://www.w3.org/1999/xlink"><clipPath id="a"><path d="m0 0h45.654v95.591h-45.654z"/></clipPath><g clip-path="url(#a)" fill="#6ca63b" stroke="#6ca63b" transform="matrix(.70710678 -.70710678 .70710678 .70710678 .00029086 32.2817711)"><path d="m24.954 11.873a2.18 2.18 0 0 1 -.781.43c-.177.062-.491.191-.892.353-3.821 1.544-6.052 2.251-6.895 1.544-.563-.472-.62-1.846-.613-4.654a17.36 17.36 0 0 0 -.073-2.369l-.095-.41a5.916 5.916 0 0 1 .006-4.008 5.767 5.767 0 0 1 1.94-1.98 3.137 3.137 0 0 1 1.873-.779c1.324.03 2.045 1.31 2.473 2.27 1.193 2.679 2.3 5.434 3.295 8.193a1.5 1.5 0 0 1 .111.783 1.1 1.1 0 0 1 -.349.627m-7.854 1.497c.352.144 1.653-.051 5.777-1.722.422-.17.754-.3.941-.37.365-.128.416-.215.421-.224a1.128 1.128 0 0 0 -.065-.222c-.984-2.733-2.082-5.464-3.265-8.118-.487-1.083-.979-1.614-1.509-1.628a2.235 2.235 0 0 0 -1.211.571 4.886 4.886 0 0 0 -1.6 1.584 5.067 5.067 0 0 0 .08 3.281l.095.418a15.259 15.259 0 0 1 .1 2.608 16.324 16.324 0 0 0 .236 3.822" transform="translate(7.66 .001)"/><path d="m31.092 85.367a28.028 28.028 0 0 1 -12.215 6.684 15.725 15.725 0 0 1 -6.131.5c-6.574-.951-10.823-7.563-12.115-13.691a29.075 29.075 0 0 1 -.245-10.752c1.029-6.286 4.075-12 7.021-17.524 1.385-2.6 2.819-5.287 4.019-7.994a60.411 60.411 0 0 0 5.141-25.362v-.24a10.677 10.677 0 0 1 .3-3.389 5.766 5.766 0 0 1 3.3-3.576 5.037 5.037 0 0 1 4.3.156l-.512.959a3.91 3.91 0 0 0 -3.376-.111 4.672 4.672 0 0 0 -2.679 2.891 9.861 9.861 0 0 0 -.254 3.048v.242a61.509 61.509 0 0 1 -5.227 25.822c-1.219 2.743-2.659 5.448-4.053 8.07-2.9 5.448-5.907 11.08-6.908 17.189a28.023 28.023 0 0 0 .236 10.352c1.215 5.753 5.153 11.959 11.206 12.83a14.664 14.664 0 0 0 5.712-.471 26.94 26.94 0 0 0 14.944-10.013c5.039-6.782 6.629-15.563 8.03-23.31 1.363-7.53 2.772-15.316 2.96-23.182.207-8.7-1.184-16.324-4.135-22.649-.771-1.656-1.894-3.669-3.736-4.546a3.154 3.154 0 0 0 -2.607-.191 2.185 2.185 0 0 0 -1.191 1.457l-1.043-.3a3.238 3.238 0 0 1 1.789-2.145 4.227 4.227 0 0 1 3.519.2c2.154 1.029 3.4 3.25 4.253 5.069 3.023 6.478 4.449 14.261 4.237 23.134-.189 7.951-1.608 15.78-2.978 23.349-1.423 7.865-3.036 16.779-8.227 23.765a27.756 27.756 0 0 1 -3.335 3.732" transform="translate(0 2.924)"/><path d="m21.625 12.338-1.085.038a22.116 22.116 0 0 0 -3.475-11.159l.93-.562a23.13 23.13 0 0 1 3.63 11.683" transform="translate(8.574 .329)"/><path d="m4.869 87.333-1-.421c4.788-11.4 8.217-24.094 10.939-35.006l4.82-19.306a65.05 65.05 0 0 0 1.68-8.233 62.621 62.621 0 0 0 .209-15.38l1.077-.138a63.762 63.762 0 0 1 -.207 15.642 65.643 65.643 0 0 1 -1.705 8.373l-4.82 19.307c-2.735 10.949-6.177 23.691-10.993 35.162" transform="translate(1.943 4.445)"/><path d="m10.441 91.2-.96-.508c10.319-19.469 14.491-42.692 17.472-64.892a33.848 33.848 0 0 0 .41-8.8l-.086-.678c-.334-2.691-.711-5.744-2.718-7.3l.666-.858c2.365 1.836 2.775 5.122 3.132 8.023l.084.673a34.749 34.749 0 0 1 -.413 9.081c-2.993 22.3-7.194 45.639-17.587 65.26" transform="translate(4.763 4.099)"/><path d="m16.662 89.143-.9-.6c8.423-12.598 11.298-27.693 13.838-41.01 1.387-7.282 2.5-13.854 2.139-20.527a31.6 31.6 0 0 0 -7.628-19.093l.8-.732a32.706 32.706 0 0 1 7.909 19.766c.373 6.8-.756 13.436-2.156 20.789-2.557 13.42-5.454 28.63-14 41.408" transform="translate(7.917 3.608)"/></g></svg>